<svg xmlns="http://www.w3.org/2000/svg" width="1920" height="1920" preserveAspectRatio="none" style="display:block" viewBox="0 0 2048 2048"><defs><linearGradient id="g" x1="1026.76" x2="1022.04" y1="1234.25" y2="1021.98" gradientUnits="userSpaceOnUse"><stop class="stop0" offset="0" stop-color="#4c167f"/><stop class="stop1" offset="1" stop-color="#742aa3"/></linearGradient><linearGradient id="f" x1="1587.43" x2="1406.86" y1="1526.77" y2="1109.39" gradientUnits="userSpaceOnUse"><stop class="stop0" offset="0" stop-color="#601d8f"/><stop class="stop1" offset="1" stop-color="#923dba"/></linearGradient><linearGradient id="e" x1="542.603" x2="562.811" y1="1227.4" y2="1238.36" gradientUnits="userSpaceOnUse"><stop class="stop0" offset="0" stop-color="#523681"/><stop class="stop1" offset="1" stop-color="#7e23b4"/></linearGradient><linearGradient id="d" x1="862.749" x2="976.059" y1="1020.6" y2="1108.94" gradientUnits="userSpaceOnUse"><stop class="stop0" offset="0" stop-color="#360e63"/><stop class="stop1" offset="1" stop-color="#5e218e"/></linearGradient><linearGradient id="c" x1="792.123" x2="1011.53" y1="779.12" y2="764.903" gradientUnits="userSpaceOnUse"><stop class="stop0" offset="0" stop-color="#8934b0"/><stop class="stop1" offset="1" stop-color="#a24cd0"/></linearGradient><linearGradient id="b" x1="831.416" x2="1014.89" y1="772.373" y2="782.458" gradientUnits="userSpaceOnUse"><stop class="stop0" offset="0" stop-color="#491673"/><stop class="stop1" offset="1" stop-color="#712a9e"/></linearGradient><linearGradient id="a" x1="394.112" x2="843.981" y1="1140.08" y2="1127.72" gradientUnits="userSpaceOnUse"><stop class="stop0" offset="0" stop-color="#420c6a"/><stop class="stop1" offset="1" stop-color="#8b37b9"/></linearGradient></defs><path fill="url(#a)" d="M1015.2 420.825c-.6 45.251.41 92.42.33 138.055.07 36.351.89 75.66 0 111.713l-.02 51.131c.26 22.887.31 45.777.13 68.665l.3 136.672-.09 14.697c-4.79 4.379-12.19 10.698-17.695 14.082-4.138 4.397-23.647 19.214-28.994 22.915-4.117 3.748-21.03 16.438-25.6 19.908-4.965 3.767-31.677 25.847-35.663 27.717-21.861 18.33-58.226 44.26-77.447 62.38 12.613 34.59 23.09 72.14 36.121 106.88 4.003 10.67 10.1 32.74 14.405 41.94-7.902 5.75-20.295 12.84-28.896 18.03a5157 5157 0 0 1-62.206 36.59l-145.171 87.39-173.053 103.4c-22.014 13.13-47.313 30.09-69.582 42-6.514 4.12-21.51 14.28-28.234 15.52l-.945-.81 1.381-2.71c3.567-9.76 15.078-29.44 20.42-38.66 6.584-11.36 14.547-26.38 21.626-37.2 2.819-6.42 11.784-21.14 15.827-28.17l33.786-58.41 55.891-97.24c10.01-17.39 21.033-37.52 31.698-54.34 8.767-18.02 27.673-48.66 38.22-66.83 16.545-28.52 34.241-61.68 51.68-89.16 1.035-2.82 10.43-18.87 12.174-21.87 9.634-16.6 19.007-33.77 29.012-50.087 1.003-2.726 14.002-24.836 16.444-29.094l42.316-73.556L930.34 563.218l42.063-73.714c8.79-15.564 32.047-56.984 42.797-68.679"/><path fill="url(#b)" d="M1015.2 420.825c-.6 45.251.41 92.42.33 138.055.07 36.351.89 75.66 0 111.713l-.02 51.131c.26 22.887.31 45.777.13 68.665l.3 136.672-.09 14.697c-4.79 4.379-12.19 10.698-17.695 14.082-4.138 4.397-23.647 19.214-28.994 22.915-4.117 3.748-21.03 16.438-25.6 19.908-4.965 3.767-31.677 25.847-35.663 27.717-21.861 18.33-58.226 44.26-77.447 62.38 12.613 34.59 23.09 72.14 36.121 106.88 4.003 10.67 10.1 32.74 14.405 41.94-4.841.17-8.494 1.14-12.233-.86l1.436-1.52c-.555-7.03-15.716-42.9-18.811-52.36-3.604-11.02-9.03-27.44-13.025-38.51-2.952-5.57-5.181-13.78-7.444-19.87-5.708-15.35-11.297-34.07-18.885-48.55 2.395-5.94 3.764-10.61 5.567-16.74l-1.242.39-2.565 5.44-1.146.35c.34-3.42-1.222-6.39-2.455-9.83.73-3.69 4.404-8.76 6.541-12.15.527-4.16-3.108-11.6-3.356-14.42-.436-7.41 7.696-40.53 11.625-45.746 18.782-24.931-2.325-28.899 13.872-55.063-1.785-9.549.333-14.776-2.121-23.306a577 577 0 0 1-1.894-6.684c-4.303-1.861-15.621-4.468-18.096-6.312-7.046-5.251-.054-29.375-1.916-37.775-1.434-6.474-3.537-11.973-5.024-18.335-1.591-6.806 3.054-9.662 7.478-15.727-1.46-6.307-1.192-6.563 2.648-12.489 5.063-7.815 1.902-22.341 5.318-32.182 1.474-4.244 1.966-6.025.333-9.187-6.352 8.232-15.852 27.266-21.533 37.223l-40.248 70.094c-7.515 13.18-27.443 43.086-32.458 56.199-1.26-3.83.6-6.534 2.31-10.672-13.44 17.482-25.034 46.316-37.98 65.081-5.747 8.331-8.697 19.761-15.914 28.161 2.383-5.42 4.857-11.27 4.846-17.207 1.003-2.726 14.002-24.836 16.444-29.094l42.316-73.556L930.34 563.218l42.063-73.714c8.79-15.564 32.047-56.984 42.797-68.679"/><path fill="url(#c)" d="M1015.2 420.825c-.6 45.251.41 92.42.33 138.055.07 36.351.89 75.66 0 111.713l-.02 51.131c-1.85-4.486-.47-8.157-4.51-16.411l-.7-1.455c-.61-8.075-.29-26.565-3.92-32.106l-.87 3.432c-2.25-2.644-4.39-25.517-3.71-29.617 2.66-16.098 3.7-30.615 2.6-46.961-.38-5.68.54-11.56.04-17.339-1.32 2.875.66 6.446-1.09 10.362-1.98-4.336 1.57-26.52 1.81-33.248.63-17.398.03-34.963 1.13-52.283.63-9.782-1.29-6.689-3.24-14.958-1.6-6.817 1.64-13.822-4.124-20.156-19.173 57.737-35.97 118.842-53.701 177.384l-77.091 248.771c-13.154 42.647-25.945 85.501-39.497 128.021-3.497 10.97-6.997 23.42-11.055 34.01l-1.242.39-2.565 5.44-1.146.35c.34-3.42-1.222-6.39-2.455-9.83.73-3.69 4.404-8.76 6.541-12.15.527-4.16-3.108-11.6-3.356-14.42-.436-7.41 7.696-40.53 11.625-45.746 18.782-24.931-2.325-28.899 13.872-55.063-1.785-9.549.333-14.776-2.121-23.306a577 577 0 0 1-1.894-6.684c-4.303-1.861-15.621-4.468-18.096-6.312-7.046-5.251-.054-29.375-1.916-37.775-1.434-6.474-3.537-11.973-5.024-18.335-1.591-6.806 3.054-9.662 7.478-15.727-1.46-6.307-1.192-6.563 2.648-12.489 5.063-7.815 1.902-22.341 5.318-32.182 1.474-4.244 1.966-6.025.333-9.187-6.352 8.232-15.852 27.266-21.533 37.223l-40.248 70.094c-7.515 13.18-27.443 43.086-32.458 56.199-1.26-3.83.6-6.534 2.31-10.672-13.44 17.482-25.034 46.316-37.98 65.081-5.747 8.331-8.697 19.761-15.914 28.161 2.383-5.42 4.857-11.27 4.846-17.207 1.003-2.726 14.002-24.836 16.444-29.094l42.316-73.556L930.34 563.218l42.063-73.714c8.79-15.564 32.047-56.984 42.797-68.679"/><path fill="#6d269c" d="M1015.2 420.825c-.6 45.251.41 92.42.33 138.055.07 36.351.89 75.66 0 111.713l-.02 51.131c-1.85-4.486-.47-8.157-4.51-16.411l-.7-1.455c-.61-8.075-.29-26.565-3.92-32.106l-.87 3.432c-2.25-2.644-4.39-25.517-3.71-29.617 2.66-16.098 3.7-30.615 2.6-46.961-.38-5.68.54-11.56.04-17.339-1.32 2.875.66 6.446-1.09 10.362-1.98-4.336 1.57-26.52 1.81-33.248.63-17.398.03-34.963 1.13-52.283.63-9.782-1.29-6.689-3.24-14.958-1.6-6.817 1.64-13.822-4.124-20.156l-.364-.913c-13.266 12.328-53.353 85.46-64.506 105.168-35.701 63.079-74.027 127.358-108.474 190.905-6.352 8.232-15.852 27.266-21.533 37.223l-40.248 70.094c-7.515 13.18-27.443 43.086-32.458 56.199-1.26-3.83.6-6.534 2.31-10.672-13.44 17.482-25.034 46.316-37.98 65.081-5.747 8.331-8.697 19.761-15.914 28.161 2.383-5.42 4.857-11.27 4.846-17.207 1.003-2.726 14.002-24.836 16.444-29.094l42.316-73.556L930.34 563.218l42.063-73.714c8.79-15.564 32.047-56.984 42.797-68.679"/><path fill="#b566de" d="M733.653 918.988c21.796-34.511 43.636-77.559 64.349-113.735L907.107 611.98c13.355-24.011 27.686-47.723 40.685-72.161 11.633-21.874 25.757-42.174 35.558-65.417 2.785-6.605 10.732-14.715 13.985-21.613 3.695-7.211 5.405-13.986 12.505-18.928l1.14.754c-.55 9.958-8.45 25.202-12.418 35.456-13.266 12.328-53.353 85.46-64.506 105.168-35.701 63.079-74.027 127.358-108.474 190.905-6.352 8.232-15.852 27.266-21.533 37.223l-40.248 70.094c-7.515 13.18-27.443 43.086-32.458 56.199-1.26-3.83.6-6.534 2.31-10.672"/><path fill="#4b157a" d="M1015.53 670.593c-5.97-31.593-6.27-53.039-5.65-84.821.17-8.853-.69-20.133.52-28.65 2.63.554 2.7.592 5.13 1.758.07 36.351.89 75.66 0 111.713"/><path fill="url(#d)" d="m1014.04 926.97 1.9.091-.09 14.697c-4.79 4.379-12.19 10.698-17.695 14.082-4.138 4.397-23.647 19.214-28.994 22.915-4.117 3.748-21.03 16.438-25.6 19.908-4.965 3.767-31.677 25.847-35.663 27.717-21.861 18.33-58.226 44.26-77.447 62.38 12.613 34.59 23.09 72.14 36.121 106.88 4.003 10.67 10.1 32.74 14.405 41.94-4.841.17-8.494 1.14-12.233-.86l1.436-1.52c-.555-7.03-15.716-42.9-18.811-52.36-3.604-11.02-9.03-27.44-13.025-38.51.39-3.52.017-4.49-.899-8.02l-.453-1.71c-4.529-17.44-15.939-38.02-20.909-56.24 10.991-12.72 34.373-28.76 48.013-39.29l69.399-54.082c18.525-14.276 37.148-28.444 55.381-43.087 5.1-4.097 10.621-8.636 16.084-12.14 4.89-.213 5.31-.024 9.08-2.791"/><path fill="#3d0f6a" d="M973.956 969.505c-1.993 3.158-3.924 5.643-4.795 9.25-4.117 3.748-21.03 16.438-25.6 19.908-4.965 3.767-31.677 25.847-35.663 27.717-.154-.75.112-1.52.213-2.27 2.68-2.18 12.985-9.77 14.26-11.91-5.237 1.44-9.969 8.49-15.77 10.45l.034-1.08c19.466-16.33 46.507-35.952 67.321-52.065M1014.04 926.97l1.9.091-.09 14.697c-4.79 4.379-12.19 10.698-17.695 14.082l-1.543-.248c-3.744 1.544-3.785 1.333-6.703 4.302l-.08-1.363c1.867-1.35 1.919-2.048 2.662-4.196 6.248-9.838 18.299-7.847 21.549-27.365"/><path fill="#2c0b52" d="M992.491 954.335c-.743 2.148-.795 2.846-2.662 4.196l.08 1.363c2.918-2.969 2.959-2.758 6.703-4.302l1.543.248c-4.138 4.397-23.647 19.214-28.994 22.915.871-3.607 2.802-6.092 4.795-9.25 2.726-2.841 14.542-11.853 18.535-15.17"/><path fill="#6d269c" d="m1010.3 703.858.7 1.455c4.04 8.254 2.66 11.925 4.51 16.411.26 22.887.31 45.777.13 68.665l.3 136.672-1.9-.091c-3.77 2.767-4.19 2.578-9.08 2.791l3.15-1.718c3.34-4.793 1.96-43.869 1.93-52.98-1.47-17.165-.87-37.809-.86-55.313z"/><path fill="#4b157a" d="M1010.04 875.063c2.96-14.406 3.57-30.075 4.27-44.701.47-9.636-.95-31.836 1.33-39.973l.3 136.672-1.9-.091c-3.77 2.767-4.19 2.578-9.08 2.791l3.15-1.718c3.34-4.793 1.96-43.869 1.93-52.98"/><path fill="#3d0f6a" d="m811.072 1078.38.943-2.47c7.588 14.48 13.177 33.2 18.885 48.55 2.263 6.09 4.492 14.3 7.444 19.87 3.995 11.07 9.421 27.49 13.025 38.51 3.095 9.46 18.256 45.33 18.811 52.36l-1.436 1.52c3.739 2 7.392 1.03 12.233.86-7.902 5.75-20.295 12.84-28.896 18.03a5157 5157 0 0 1-62.206 36.59l-145.171 87.39-173.053 103.4c-22.014 13.13-47.313 30.09-69.582 42-3.764-.58-6.102-1.04-9.889-.57l.698-1.56 3.537-2.7c2.283-1.71 13.765-19.99 19.543-26.31 24.68-27.02 50.304-52.94 75.469-79.51l199.642-208.76 61.432-64.67c19.313-20.15 40.364-41.47 58.571-62.53"/><path fill="#6d269c" d="m811.072 1078.38.943-2.47c7.588 14.48 13.177 33.2 18.885 48.55 2.263 6.09 4.492 14.3 7.444 19.87 3.995 11.07 9.421 27.49 13.025 38.51 3.095 9.46 18.256 45.33 18.811 52.36l-1.436 1.52c-9.835-10.59-51.114-134-57.672-158.34"/><path fill="url(#e)" d="M733.653 918.988c-1.71 4.138-3.57 6.842-2.31 10.672-1.936 8.563-19.237 33.947-23.743 42.429-7.349 13.833-16.293 28.171-23.962 41.731L444.52 1429.55c-6.297 11.01-13.134 21.79-19.216 32.83-10.63 19.29-19.441 39.02-33.825 55.93-4.571 5.38-10.914 12.64-14.096 18.86l-2.198.91-.914-1.09c3.567-9.76 15.078-29.44 20.42-38.66 6.584-11.36 14.547-26.38 21.626-37.2 2.819-6.42 11.784-21.14 15.827-28.17l33.786-58.41 55.891-97.24c10.01-17.39 21.033-37.52 31.698-54.34 8.767-18.02 27.673-48.66 38.22-66.83 16.545-28.52 34.241-61.68 51.68-89.16 1.035-2.82 10.43-18.87 12.174-21.87 9.634-16.6 19.007-33.77 29.012-50.087.011 5.937-2.463 11.787-4.846 17.207 7.217-8.4 10.167-19.83 15.914-28.161 12.946-18.765 24.54-47.599 37.98-65.081"/><path fill="#4b157a" d="M553.519 1222.97c-.016 4.84-.288 5.41-1.655 10.16l-85.444 149.52c-13.903 24.23-25.776 49.23-41.993 72.27-2.531 3.6-3.959 4.93-8.11 6.21 2.819-6.42 11.784-21.14 15.827-28.17l33.786-58.41 55.891-97.24c10.01-17.39 21.033-37.52 31.698-54.34"/><path fill="#6d269c" d="M643.419 1066.98c-1.11 4.17-2.116 8.04-3.042 12.27-3.231 7.3-6.998 12.2-10.419 18.86-8.846 17.23-19.033 33.2-28.513 49.91a4166 4166 0 0 1-34.854 61.24c-2.688 4.58-11.668 20.25-14.727 23.87 1.367-4.75 1.639-5.32 1.655-10.16 8.767-18.02 27.673-48.66 38.22-66.83 16.545-28.52 34.241-61.68 51.68-89.16"/><path fill="#6d269c" d="M684.605 995.023c.011 5.937-2.463 11.787-4.846 17.207-6.185 11.04-12.867 22.34-19.285 33.24-4.853 8.25-14.161 26.88-20.097 33.78.926-4.23 1.932-8.1 3.042-12.27 1.035-2.82 10.43-18.87 12.174-21.87 9.634-16.6 19.007-33.77 29.012-50.087M1038.98 956.253c-1.01-15.916-.36-34.161-.26-50.253l.17-78.514c-.84-86.834-.89-173.674-.15-260.509l-.38-112.396c.03-7.457-.89-26.424.38-32.081l1.77.551 90.15 156.556 35.97 62.176c7.03 12.062 16.9 27.9 23.06 40.085 3.13 3.137 37.4 65.282 42.51 73.945 20.65 35.06 42.45 72.718 62.06 108.63 6.19 11.338 13.48 22.865 19.23 34.402l-14.67-6.347a6332 6332 0 0 1-145.43-64.808c-4.48 15.5-8.09 33.923-11.69 49.845a5517 5517 0 0 1-17.52 74.034c-3.76 16.041-6.77 32.032-11.2 47.926-2.17-1.254-10.23-5.707-11.72-6.98-14.79-7.288-48.1-27.064-62.28-36.262"/><path fill="#b566de" d="m1040.51 423.051 90.15 156.556 35.97 62.176c7.03 12.062 16.9 27.9 23.06 40.085 3.13 3.137 37.4 65.282 42.51 73.945 20.65 35.06 42.45 72.718 62.06 108.63 6.19 11.338 13.48 22.865 19.23 34.402l-14.67-6.347c-10.48-18.51-72.32-28.111-93.13-48.309 4.49-.504 10.02 2.692 15.36 2.265-8.17-8.868-50.12-19.715-55.3-28.548l-8.49-3.523c-4.12-2.18-9.46-4.402-13.79-6.353-13.05-39.067-25.56-90.768-36.49-131.257a7716 7716 0 0 1-58.29-222.953c-2.98-8.243-5.96-18.05-8.52-26.456z"/><path fill="#cd84f6" d="m1040.51 423.051 90.15 156.556 35.97 62.176c7.03 12.062 16.9 27.9 23.06 40.085 3.13 3.137 37.4 65.282 42.51 73.945 20.65 35.06 42.45 72.718 62.06 108.63 6.19 11.338 13.48 22.865 19.23 34.402l-14.67-6.347c-10.48-18.51-72.32-28.111-93.13-48.309 4.49-.504 10.02 2.692 15.36 2.265-8.17-8.868-50.12-19.715-55.3-28.548 14.26 4.921 31.39 12.637 44.93 19.493 25.53 12.914 54.48 24.569 79.31 38.326l-112.85-197.794c-4.82-8.559-11.49-16.733-16.29-25.305a7269 7269 0 0 0-80.85-143.44c-5.98-10.095-11.57-18.295-17.89-28.041-4.8-7.402-8.07-19.211-13.42-27.325-2.98-8.243-5.96-18.05-8.52-26.456z"/><path fill="#6d269c" d="M1189.69 681.868c3.13 3.137 37.4 65.282 42.51 73.945 20.65 35.06 42.45 72.718 62.06 108.63 6.19 11.338 13.48 22.865 19.23 34.402l-14.67-6.347c-10.48-18.51-72.32-28.111-93.13-48.309 4.49-.504 10.02 2.692 15.36 2.265-8.17-8.868-50.12-19.715-55.3-28.548 14.26 4.921 31.39 12.637 44.93 19.493 25.53 12.914 54.48 24.569 79.31 38.326 4.06 3.901 8.47 7.14 12.92 10.591-6.07-12.179-16.91-27.658-23.7-40.321-16.27-30.642-34.93-61.751-51.15-92.162-6.43-12.058-38.08-62.688-38.37-71.965"/><path fill="#4b157a" d="M1038.98 956.253c-1.01-15.916-.36-34.161-.26-50.253l.17-78.514c-.84-86.834-.89-173.674-.15-260.509l-.38-112.396c.03-7.457-.89-26.424.38-32.081l1.77.551-.34 4.313c-.4 13.709 1.04 27.941 1.46 41.686.88 28.989 2.3 59.431 1.29 88.379 1.33 81.238 1.8 162.488 1.42 243.737-.08 12.141-1.32 25.393-1.16 37.003.48 35.741 2.32 73.71.84 109.378 23.58 11.388 39.98 21.705 62.21 35.559 4.22-15.008 7.56-32.605 10.89-48.004l15.71-71.929c2.55-11.846 8.03-39.27 11.81-49.765l2.66-1.346c4.14 2.057 5.34 2.202 9.96 2.321l8.49 3.523c5.18 8.833 47.13 19.68 55.3 28.548-5.34.427-10.87-2.769-15.36-2.265 20.81 20.198 82.65 29.799 93.13 48.309a6332 6332 0 0 1-145.43-64.808c-4.48 15.5-8.09 33.923-11.69 49.845a5517 5517 0 0 1-17.52 74.034c-3.76 16.041-6.77 32.032-11.2 47.926-2.17-1.254-10.23-5.707-11.72-6.98-14.79-7.288-48.1-27.064-62.28-36.262"/><path fill="#3d0f6a" d="M1038.98 956.253c-1.01-15.916-.36-34.161-.26-50.253l.17-78.514c-.84-86.834-.89-173.674-.15-260.509l-.38-112.396c.03-7.457-.89-26.424.38-32.081l1.77.551-.34 4.313c-.4 13.709 1.04 27.941 1.46 41.686.88 28.989 2.3 59.431 1.29 88.379-2.63 11.123-1.38 67.486-1.36 83.667l-.86 125.403c.01 33.792 2.18 68.296.93 102.249-.51 13.84-1.76 71.482 2.15 80.627l-2.64 2.689c3.71 12.312 54.14 27.405 60.12 40.451-14.79-7.288-48.1-27.064-62.28-36.262"/><path fill="#4b157a" d="M1410.58 1072.18c33.49 53.76 63.97 108.96 95.56 163.78l172.67 297.82c.93 1.15 5.33 9.58 6.32 11.42a6678 6678 0 0 1-159.79-94.66l-177.55-106.06c-58.16-35.17-120.74-69.17-178.18-104.87.63-5.57 12.75-38.56 15.37-49.43 30.68 8.67 67.05 18.12 97.18 28.09 3.63.91 23.11 6.03 26.48 7.55 11 8.16 72.25 20.26 88.1 29.98 3.56-6.54 14.99-105.62 15.23-118.54-4.11-11.1 5.8-37.04-3.54-47.65z"/><path fill="url(#f)" d="M1410.58 1072.18c33.49 53.76 63.97 108.96 95.56 163.78l172.67 297.82-2.81 1.18c-6.66-1.99-12.79-11.4-17.17-16.99-1.38-2.94-2.76-4.28-4.85-6.71l-150.8-149.5c-15.5-15.46-94.14-96.6-106.3-102.39.79-2.52.9-1.33-.14-3.57 3.56-6.54 14.99-105.62 15.23-118.54-4.11-11.1 5.8-37.04-3.54-47.65z"/><path fill="#6d269c" d="M1410.58 1072.18c33.49 53.76 63.97 108.96 95.56 163.78l172.67 297.82-2.81 1.18c-6.66-1.99-12.79-11.4-17.17-16.99-1.38-2.94-2.76-4.28-4.85-6.71-1.69-2.64-1.43-4.21-1.56-7.35-1.16-2.98-8.26-14.03-10.32-17.53-61.03-103.79-122.92-207.17-182.04-312.04-3-5.32-10.56-17.2-12.39-22.25.64-1.08.35-.53.98-1.96 1.09-2.46-26.39-50.2-29.14-57.36-1.06-4.22-3.35-8.08-5.36-11.99 1.49 13.85.74 43.04-2.18 56.48-4.11-11.1 5.8-37.04-3.54-47.65z"/><path fill="#8e4bc5" d="M1419.51 1092.77c7.24 6.77 28.54 48.4 34.72 59.4l56.21 98.4c6.18 11 11.65 22.45 17.99 33.44l100.35 174.68c7.93 14.1 23.34 35.67 29.26 49.56l-.22 1.42c-2.97-2.04-3.35-2.89-5.4-5.76-1.16-2.98-8.26-14.03-10.32-17.53-61.03-103.79-122.92-207.17-182.04-312.04-3-5.32-10.56-17.2-12.39-22.25.64-1.08.35-.53.98-1.96 1.09-2.46-26.39-50.2-29.14-57.36"/><path fill="#b566de" d="M1447.67 1152.09c-8.45-16.85-22.22-35.18-30.32-52.85-1.07-2.35-.64-3.93.14-6.03l2.02-.44c2.75 7.16 30.23 54.9 29.14 57.36-.63 1.43-.34.88-.98 1.96"/><path fill="#2c0b52" d="m1169.61 1239.61 2.65-3.21c1.91.72 1.46.35 3.39.46 7.76.44 16.28 5.97 23.31 9.49 7.91 6.29 20.7 11.94 29.81 17.19l69.66 41.02 257.47 153.04c10.31 6.13 57.64 30.82 62.35 35.68 14.43 7.11 24.98 10.13 36.88 22.4l3.7 2.29c4.38 5.59 10.51 15 17.17 16.99l2.81-1.18c.93 1.15 5.33 9.58 6.32 11.42a6678 6678 0 0 1-159.79-94.66l-177.55-106.06c-58.16-35.17-120.74-69.17-178.18-104.87"/><path fill="#b566de" d="M1201.29 1203.21c-4.8-1.68-8.57-2.43-12.06-5.99l-.17-1.45c11.12-2.57 69.43 20.6 93.1 22.5 3.63.91 23.11 6.03 26.48 7.55 11 8.16 72.25 20.26 88.1 29.98 1.04 2.24.93 1.05.14 3.57-23.8-7.93-51.78-14.94-76.08-21.88z"/><path fill="#3d0f6a" d="M411.465 1546.17c2.891-2.35 8.5-5.38 11.865-7.51 44.345-27.95 89.885-53.84 134.896-80.67l172.669-102.55c32.616-19.46 76.089-47.16 109.066-63.25-4.99 10.33-21.668 33.51-29.039 43.86-8.267 11.6-20.779 31.26-29.281 41.88-6.549 10.55-16.483 23.57-23.935 33.84a2857 2857 0 0 1-38.348 52.11c1.24 2.37 3.274 3.14 5.657 4.53 13.902 8.01 156.617 95.04 157.362 97.67l-.221.25c-12.498.98-35.686.21-49.25.22l-97.732.06-321.605-.53c-6.298-.11-25.887 1.31-30.06-1.25l.568-1.82 2.85-1.46c8.464-6.15 15.54-10.18 24.538-15.38"/><path fill="#6d269c" d="M615.379 1433.92c63.271-39.51 130.011-76.17 193.556-115.43 5.24-3.24 9.224-9.58 15.78-13.32-3.646 6.21-9.497 11.15-14.117 16.7-30.078 36.15-57.501 74.32-86.204 111.55-2.812 3.65-21.062 26.8-20.323 29.88l3.879 1.12-1.056 2.3c11.958 10.59 45.339 26.7 59.226 37.8-11.522-2.7-55.12-30.94-64.201-39.61-86.059 27.71-173.28 51.64-259.381 79.09-9.112 2.9-18.41 8.3-27.838 9.29 14.506-12.22 26.799-15.96 40.914-25.03 37.059-23.8 75.425-44.14 113.039-67.15 15.534-9.5 31.1-17.02 46.726-27.19"/><path fill="#2c0b52" d="M408.829 1556.97c3.429 2.02 11.638 2.6 15.568 2.39 65.274-3.47 130.745-.76 196.086-1.11 14.248-.08 28.886 1.15 43.01 1.09 66.431-.3 134.735-5.08 200.474 5.81 5.784.96 12.391.4 18.189 1.18-12.498.98-35.686.21-49.25.22l-97.732.06-321.605-.53c-4.106-3.45-4.09-3.58-5.933-8.73z"/><path fill="#b566de" d="M611.372 1430.06c15.48-7.45 33.826-20.27 49.123-29.21 49.139-28.71 97.397-58.9 146.837-87.14 6.85-3.91 12.804-9.06 20.128-12.22l.457.64-3.202 3.04c-6.556 3.74-10.54 10.08-15.78 13.32-63.545 39.26-130.285 75.92-193.556 115.43z"/><path fill="#8e4bc5" d="M413.204 1547.03c21.117-10.25 42.878-25.57 63.367-37.23 45.207-25.71 89.86-53.8 134.801-79.74l4.007 3.86c-15.626 10.17-31.192 17.69-46.726 27.19-37.614 23.01-75.98 43.35-113.039 67.15-14.115 9.07-26.408 12.81-40.914 25.03l-5.536 2.9c-2.196-1.13-1.543-.5-3.037-2.33 1.435-3.65 3.476-4.2 7.077-6.83"/><path fill="#b566de" d="M707.95 1464.42c27.028 12.52 49.942 30.59 75.346 44.25 29.621 15.93 61.8 41.25 91.296 54.86-4.582.22-11.71-1.75-15.622-3.81-20.681-10.89-40.951-23.3-60.727-35.75-10.449-6.58-22.225-12.58-32.123-19.45-13.887-11.1-47.268-27.21-59.226-37.8z"/><path fill="#2c0b52" d="M725.015 1468.41c-4.69-.93-9.842-1.4-11.006-6.3 1.304-3.74 51.874-69.48 58.412-78.42.454 2.2-2.523 5.03-4.249 8.8 4.308-2.86 6.421-10.27 13.469-14.56-6.549 10.55-16.483 23.57-23.935 33.84a2857 2857 0 0 1-38.348 52.11c1.24 2.37 3.274 3.14 5.657 4.53"/><path fill="#1e1030" d="m411.465 1546.17 1.739.86c-3.601 2.63-5.642 3.18-7.077 6.83 1.494 1.83.841 1.2 3.037 2.33l-.335.78-1.193.38c1.843 5.15 1.827 5.28 5.933 8.73-6.298-.11-25.887 1.31-30.06-1.25l.568-1.82 2.85-1.46c8.464-6.15 15.54-10.18 24.538-15.38"/><path fill="#6d269c" d="m411.465 1546.17 1.739.86c-3.601 2.63-5.642 3.18-7.077 6.83 1.494 1.83.841 1.2 3.037 2.33l-.335.78-1.193.38c-4.807 1.63-16.225 6.49-20.709 4.2 8.464-6.15 15.54-10.18 24.538-15.38"/><path fill="#3d0f6a" d="M1209.47 1292.85c15.39 7.23 26.28 13.82 40.39 22.87 33.96 18.59 67.29 39.05 100.58 58.86l130 77.15c42.63 25 85.12 50.25 127.45 75.74 7.39 4.44 56.38 32.94 58.74 37.14-.85 1.54-.27 1.1-1.46 1.63l-265.45.63c-44.94-.41-89.88-.52-134.83-.32-27.46-.05-56.59-.65-83.91.44l-12.46-.03c24.55-18.27 62.9-40.42 89.79-57.38l45.67-28.58c6.45-4 17.68-11.42 24.27-14.34l.43-.66c-.22-6.25-35.04-50.11-41.3-59.16-7.76-9.5-17.55-24.44-24.92-34.9-17.94-25.45-36.87-52.48-52.99-79.09"/><path fill="#6d269c" d="M1225.22 1307.01c5.64 3.83 11.18 10.43 16.21 13.41 9.65 5.72 19.69 10.91 29.36 16.71l87.95 52.23 183.62 109.63c13.01 7.63 97.01 53.48 101.88 59.35-3.89-.69-22.42-7.52-27.44-9.19l-66-21.88c-62.61-20.6-126.77-37.4-189.44-58.01-3.73-1.22-10.58-3.7-14.19-3.82-1.49-.83-3.48-1.53-5.11-2.18 1.76-.67 1.02-.09 2.06-1.92-4.32-8.05-28.4-37.83-35.02-46.74-21.57-29.06-44.38-57.91-65.97-87.05-5.79-7.82-10.82-9.3-17.91-20.54"/><path fill="#2c0b52" d="M1187.78 1560.41c14.72-3.9 37.69-1.77 53.52-2.09 47.61-.95 95.86.51 143.4.47 56.3-.05 112.44-.31 168.77.01 33.19.19 48.4-.83 81.9 1.97l-.59-1.91c-.54-.03 31.53 8.04 30.39 7.38l-265.45.63c-44.94-.41-89.88-.52-134.83-.32-27.46-.05-56.59-.65-83.91.44z"/><path fill="#3d0f6a" d="M1209.47 1292.85c15.39 7.23 26.28 13.82 40.39 22.87l-3.92-.05c-9.97-5.56-18.93-11.3-29.16-16.62 2.89 2.57 5.71 5.23 8.44 7.96 7.09 11.24 12.12 12.72 17.91 20.54 21.59 29.14 44.4 57.99 65.97 87.05 6.62 8.91 30.7 38.69 35.02 46.74-1.04 1.83-.3 1.25-2.06 1.92-9.68 3.73-24.79 13.65-34.06 19.39l-50.47 31.45-42 26.28c-6.16 3.84-17.2 10.31-22.52 14.33-3.14 1.93-3.33 2.63-5.23 5.7l-6.8 6.58-12.46-.03c24.55-18.27 62.9-40.42 89.79-57.38l45.67-28.58c6.45-4 17.68-11.42 24.27-14.34l.43-.66c-.22-6.25-35.04-50.11-41.3-59.16-7.76-9.5-17.55-24.44-24.92-34.9-17.94-25.45-36.87-52.48-52.99-79.09"/><path fill="#2c0b52" d="M1287.38 1406.84c6.01 1.87 16.16 17 20.68 22.54 8.79 10.75 18.11 21.82 26.34 32.97-1.16 2.84-1.37 2.22-4.54 4.21l-1.61.1.43-.66c-.22-6.25-35.04-50.11-41.3-59.16"/><path fill="#b566de" d="M1216.78 1299.05c10.23 5.32 19.19 11.06 29.16 16.62l306.21 183.57c32.91 19.76 69.33 38.17 102.01 58.91l-.41 1.89 2.96.26c-3.75.68-8.65-.91-12.47-1.96-4.87-5.87-88.87-51.72-101.88-59.35l-183.62-109.63-87.95-52.23c-9.67-5.8-19.71-10.99-29.36-16.71-5.03-2.98-10.57-9.58-16.21-13.41-2.73-2.73-5.55-5.39-8.44-7.96"/><path fill="#8e4bc5" d="M1342.06 1463.26c1.63.65 3.62 1.35 5.11 2.18-9.24 7.07-18.34 11.49-28.16 17.58l-62.96 38.5c-12.72 7.87-47.26 30.61-60.09 34.12-.84-.24-2.22-.56-2.95-.93 5.32-4.02 16.36-10.49 22.52-14.33l42-26.28 50.47-31.45c9.27-5.74 24.38-15.66 34.06-19.39"/><path fill="url(#g)" d="M926.409 1176.68c-11.962-19.39-14.001-48.99-8.609-70.69 14.92-60.05 73.597-97.85 134.15-82.76a110.99 110.99 0 0 1 68.86 51.76c14.83 25.08 19.31 53.7 12.27 82.2-3.67 14.87-12.25 27.21-20.23 39.9-14.82 17.32-34.39 31.9-56.72 37.65l-1.94.55c-27.2 6.16-54.596 5.71-79.339-8.79-17.919-6.59-39.912-32.06-48.442-49.82m96.291-43.03c-3.72-15.47-12.63-31.61-16.38-45.88-3.33-2.71-6.468-3.84-8.214-7.64l.781-2.46c4.693-1.4 48.653-.94 56.093-.56l.76.91c-2.11 7.12-8.11 5.66-12.92 15.42 3.58 16.5 12.34 37.08 17.27 53.91 4.39 12.46 9.04 24.82 13.94 37.09 1.7-8.1 5.61-19.17 7.92-27.45 3.59-12.92 6.99-26.07 10.73-38.92-7.63-22.08-20.7-28.94-12.77-53.87 6-.93 11.47-1.14 17.52-1.47l-.92-.92c-23.79-23.48-46.19-31.19-79.02-30.76-2.79.51-14.7 2.85-16.93 2.79-24.51 8.67-44.173 19.92-57.667 43.3 6.224-.13 34.868-1.6 38.061.93-.723 5.22-10.728 9.38-10.02 14.32 3.982 27.82 23.596 66.8 30.136 94.08 5.66-11.2 17-40.05 21.63-52.82m90.97-41.09c-7.41 33.26-19.33 62.01-29.68 94.3-1.43 4.46-8.49 22.84-8.78 24.9 2.84-.19 4.36-1.44 6.82-2.91 21.63-15.58 35.38-34.25 39.96-60.95 2.05-11.96 2.77-48.29-8.32-55.34m-184.603 55.67c9.211 34.72 22.519 49.3 50.972 68.63-4.331-13.35-9.869-27.88-13.604-41.13-10.85-19.68-19.542-63.05-31.547-84.6-8.402 20.31-9.249 35.67-5.821 57.1m98.313-2.5c-4.79 13.08-12.6 35.91-18.66 48.22-3.84 10.62-6.49 18.97-9.579 29.83 20.059 5.1 37.059 6.49 56.329-2.28-.57-1.76-2.97-8.8-3.15-10.18-9.18-18.12-16-46.8-24.94-65.59"/><path fill="#3d0f6a" d="M926.409 1176.68c4.197 3.02 11.149 10.97 14.836 15.16 13.197 14.97 25.683 27.91 43.917 36.65l-10.311-1.99c-17.919-6.59-39.912-32.06-48.442-49.82M1056.13 1234.74c3.68-4.95 20.03-13.87 25.98-17.09 9.28-5.04 21.47-19.16 30.74-20.56-14.82 17.32-34.39 31.9-56.72 37.65"/><path fill="#3d0f6a" d="m974.851 1226.5 10.311 1.99c16.458 5.75 30.808 8.29 48.188 7.39 5.39-.28 15.99-1.15 20.84-.59-27.2 6.16-54.596 5.71-79.339-8.79"/><path fill="#6d269c" d="M980.843 1035.65c10.379-6.98 32.077-10.74 44.267-8.13 29.43 1.33 58.23 10.21 76.14 35.11-5.57 1.35-12.52 2.85-18.42 3.49-.33.03-1.89 2.58-1.91 2.64-5.28 12.64 16.09 40.98 11.76 49.31-7.63-22.08-20.7-28.94-12.77-53.87 6-.93 11.47-1.14 17.52-1.47l-.92-.92c-23.79-23.48-46.19-31.19-79.02-30.76-2.79.51-14.7 2.85-16.93 2.79-24.51 8.67-44.173 19.92-57.667 43.3 6.224-.13 34.868-1.6 38.061.93-.723 5.22-10.728 9.38-10.02 14.32 3.982 27.82 23.596 66.8 30.136 94.08 5.66-11.2 17-40.05 21.63-52.82-3.72-15.47-12.63-31.61-16.38-45.88 6.45 5.05 20.73 42.08 20.89 49.22-1.63 4.9.54 5.14.17 8.74-4.79 13.08-12.6 35.91-18.66 48.22-1.52 1.55-2.34 2.16-4.24 3.21-3.6 7.53-9.568 18.31-8.284 25.86.307 1.81.246 1.28-1.05 2.85-3.968-.44-10.797-5.06-14.707-7.2.35-9.61-4.182-22.12-6.462-31.62-1.325-5.52-2.524-8.44-7.542-11.32-10.85-19.68-19.542-63.05-31.547-84.6-8.402 20.31-9.249 35.67-5.821 57.1-6.152-5.26-3.774-10.15-4.098-17.13-1.738-37.44 20.928-80.08 55.874-95.45"/><path fill="#3d0f6a" d="M1027.38 1145.73c.37-3.6-1.8-3.84-.17-8.74 8.9 16.76 23.71 56.16 25.11 74.33-9.18-18.12-16-46.8-24.94-65.59"/><path fill="#6d269c" d="M1060.09 1147.35c-9.44-4.94-18.05-42.17-17.27-53.91 3.58 16.5 12.34 37.08 17.27 53.91"/><path fill="#4b157a" d="M1050.94 1295.5c9.63.15 28.01-.47 36.64.33l3.26-.07 1.52.91c-1.23 7.59-6.74 21.8-9.28 29.47l-21.81 63.86c-9.43 27.16-17.96 55.01-27.47 82.01-11.44 32.53-22.4 64.17-33.09 97-16.362-.2-33.332-.64-49.643-.48 3.125-8.35 7.797-21.95 11.293-29.69.813-5.03 8.048-24.78 10.384-30.49 15.984-39.05 26.983-84.4 43.506-122.85 1.34-10.28 25.79-71.94 30.57-87.21.74-2.38 2.13-2.24 4.12-2.79"/><path fill="#6d269c" d="M1050.94 1295.5c9.63.15 28.01-.47 36.64.33-.62 3.54-1.87 5.68-5.31 7.2l-13.23-.1c-4.66.29-8.58.56-13.27.47-6.23 11.29-10.43 29.92-15.55 42.78-20.15 50.7-36.37 103.36-55.402 154.49-7.176 19.28-14.118 40.17-23.053 58.52-.141.39-1.221 1.89-1.501 2.3l-1.034-.89.709-2.31c-1.635-7.53 2.16-10.38 2.421-19.45.813-5.03 8.048-24.78 10.384-30.49 15.984-39.05 26.983-84.4 43.506-122.85 1.34-10.28 25.79-71.94 30.57-87.21.74-2.38 2.13-2.24 4.12-2.79"/><path fill="#3d0f6a" d="M962.36 1538.84c.813-5.03 8.048-24.78 10.384-30.49 15.984-39.05 26.983-84.4 43.506-122.85 1.38 15.01-15.05 35.5-13.53 53.79-14.383 39.95-27.796 79.18-42.781 119-1.635-7.53 2.16-10.38 2.421-19.45"/><path fill="#4b157a" d="M1016.25 1385.5c1.34-10.28 25.79-71.94 30.57-87.21.74-2.38 2.13-2.24 4.12-2.79-4.27 20.72-19.42 59.42-26.67 80.85l-14.54 42.92c-2.32 6.86-3.9 13.49-7.01 20.02-1.52-18.29 14.91-38.78 13.53-53.79"/><path fill="#b566de" d="M1069.04 1302.93c-3.92-.36-13.16-.73-16.31-1.87 6.62-2.49 23.13-2.89 29.14-.87.76 1.88.66.93.4 2.84z"/><path fill="#3d0f6a" d="m1090.84 1295.76 1.52.91c-1.23 7.59-6.74 21.8-9.28 29.47l-21.81 63.86c-9.43 27.16-17.96 55.01-27.47 82.01-11.44 32.53-22.4 64.17-33.09 97-16.362-.2-33.332-.64-49.643-.48 3.125-8.35 7.797-21.95 11.293-29.69-.261 9.07-4.056 11.92-2.421 19.45l-.709 2.31 1.034.89c.28-.41 1.36-1.91 1.501-2.3 6.798-.47 27.207.49 35.152.61 2.448-9.5 6.873-19.87 10.153-29.29l23.2-66.37c15.32-44.32 29.49-89.62 46.36-133.55 5.12-13.35 5.7-22.57 14.21-34.83"/><path fill="#6d269c" d="M1118.03 1382.48c-.05-7.31-1.48-47.22 1.67-51.08l2.12.85c42.53 23.53 89.66 54.87 131.86 80.87 1.81 3.04 1.64 5.73 1.23 9.27l.12 32.15c-15.77 8.39-30.47 18.06-45.66 27.46l-54.48 33.07c-11.83 7.16-25.74 15.87-38.1 21.96l.19-26.56.07-25.43c16.37-10.61 32.94-20.89 49.72-30.84 10.27-7.2 23.64-15.01 34.51-21.39z"/><path fill="#3d0f6a" d="M1118.03 1382.48c-.05-7.31-1.48-47.22 1.67-51.08l2.12.85-2 1.45c.13 2.55.16 4.22 2.76 5.79l.28 2.3c-.05 10.7.07 21.4.37 32.09l.03-.08c14.25 7.71 73.76 42.71 83.44 52.71.87 3.49-.31 3.99.14 7.41-9.79 7.28-25.18 15.33-36.2 22.13l-3.87-1.85c10.27-7.2 23.64-15.01 34.51-21.39z"/><path fill="#2c0b52" d="M1249.79 1452.28c6.45-15.16 1.64-17.11 5.12-29.89l.12 32.15c-15.77 8.39-30.47 18.06-45.66 27.46l-54.48 33.07c-11.83 7.16-25.74 15.87-38.1 21.96l.19-26.56c1.19 4.04 2.64 8.88 5.69 11.83 5.61-1.99 22.57-12.64 28.36-16.16 16.79-10.37 33.65-20.61 50.59-30.72 9.61 1.53 39.82-17.22 48.17-23.14"/><path fill="#b566de" d="m1122.58 1339.49 1.08-2.19c4.51.6 124.73 77.64 126.41 79.85-4.32 10.31.18 17.56-1.63 26.14-2.64-4.7.42-20.93-1.95-22.7-27.28-20.36-57.68-37.47-86.42-55.83-11.11-7.09-27.23-15.25-37.21-22.97zM1206.84 1433.92l1.69 1.76c-3.43 4.14-81.81 53.03-85.55 53.79l-1.73-1.12c-.21-1.48-.66-2.19.34-2.83 14.7-9.36 34.6-20.51 49.05-29.47 11.02-6.8 26.41-14.85 36.2-22.13"/><path fill="#3d0f6a" d="M1253.68 1413.12c1.81 3.04 1.64 5.73 1.23 9.27-3.48 12.78 1.33 14.73-5.12 29.89-8.35 5.92-38.56 24.67-48.17 23.14 12.69-8.64 34.33-23.73 47.98-28.93-.17-9.68 1.02-24.18 4.08-33.37"/><path fill="#4b157a" d="M933.506 1329.6c.094 5.7-.228 11.31-.475 17 1.1 9.75.93 24.49.721 34.45-11.639 7.03-21.149 12.72-34.827 21.27-11.837 7.39-34.742 22.28-47.815 29.32-.297.62-.593 1.23-.889 1.85 7.076 2.88 21.568 12.38 28.617 16.69l52.327 31.99 3.168 2.23c1.198 6.16 1.111 43.25-.355 50.03-14.727-3.27-120.427-70.26-137.877-81.29-.242-9.67.048-18.11.42-27.73l-.031-10.78a3479 3479 0 0 1 85.953-54.51c14.561-9.14 36-23.58 51.063-30.52"/><path fill="#2c0b52" d="M796.521 1425.41c1.266 6.65 2.521 14.25 4.383 20.66l1.34-.36c11.47 5.6 25.782 15.69 36.916 22.59 13.115 8.12 26.874 16.21 39.708 24.63 7.773 5.09 24.136 13 30.369 18.29l1.088.46c7.987 3.48 13.11 10.01 18.115 11.14 1.722-2.36 1.075-2.05.733-5.85-.361-9.22.078-18.46 1.314-27.61 2.094-3.97 1.721-2.18.678-7.19l3.168 2.23c1.198 6.16 1.111 43.25-.355 50.03-14.727-3.27-120.427-70.26-137.877-81.29-.242-9.67.048-18.11.42-27.73"/><path fill="#3d0f6a" d="m931.165 1482.17 3.168 2.23c-.47 16.39.239 32.12-1.108 48.5-5.459-2.67-20.536-16.96-23.988-21.68l1.088.46c7.987 3.48 13.11 10.01 18.115 11.14 1.722-2.36 1.075-2.05.733-5.85-.361-9.22.078-18.46 1.314-27.61 2.094-3.97 1.721-2.18.678-7.19"/><path fill="#8e4bc5" d="M933.506 1329.6c.094 5.7-.228 11.31-.475 17-.726 7.1-1.36 22.8-5.9 27.24l-.89-2.83-.472.96c-.344-9.77-.573-19.53-.687-29.3a3594 3594 0 0 0-67.638 41.65c-18.589 11.97-36.743 25.29-56.58 34.58-.72 5.11-.176 22.17 1.38 26.81l-1.34.36c-1.862-6.41-3.117-14.01-4.383-20.66l-.031-10.78a3479 3479 0 0 1 85.953-54.51c14.561-9.14 36-23.58 51.063-30.52"/><path fill="#3d0f6a" d="M933.031 1346.6c1.1 9.75.93 24.49.721 34.45-11.639 7.03-21.149 12.72-34.827 21.27-11.837 7.39-34.742 22.28-47.815 29.32-.297.62-.593 1.23-.889 1.85-3.538.3-6.502-2.5-9.643-4.74l-.769-.14.082-1.06c22.953-17.41 61.987-37.69 87.24-53.71 4.54-4.44 5.174-20.14 5.9-27.24"/><path fill="#b566de" d="M838.956 1432.16c10.462 5.78 88.874 51.46 91.191 56.2-3.631.58-7.002-1.97-10.409-3.87-12.912-7.42-25.732-15-38.459-22.73-7.907-4.8-40.706-22.97-42.323-29.6"/><path fill="#6d269c" d="M919.738 1484.49c3.407 1.9 6.778 4.45 10.409 3.87l.34 1a159.6 159.6 0 0 0-1.314 27.61l-1.631 2.04c-5.814-7.08-.429-24.61-7.804-34.52M1178.8 952.173c11-.129 22.01-.198 33.01-.206 1.2 14.126.18 32.909.54 47.476 1.09 44.437-1.87 93.977.34 138.067-14.35-.02-28.73-.46-43.07-.29-.75-12.12-1.32-63.96.26-74.61-.39-26.79-1.1-53.57-.58-80.364.12-6.282-.36-23.716.82-28.969 2.67-1.851 5.28-1.243 8.68-1.104"/><path fill="#3d0f6a" d="M1211.81 951.967c1.2 14.126.18 32.909.54 47.476 1.09 44.437-1.87 93.977.34 138.067-14.35-.02-28.73-.46-43.07-.29-.75-12.12-1.32-63.96.26-74.61.97 8.1.05 37.32.81 40.47.18-2.64 1.17-20.5 1.77-21.45.87 11.63 2.3 35.05 2.26 46.45 13.71-.03 20.51-.11 34.03 2.36.3-6.98 1.03-18.33-.71-25-1.49-22.75.78-53.12 1.73-76.21.67-16.07-2.67-66.271 2.04-77.263"/><path fill="#4b157a" d="M1169.88 1062.61c-.39-26.79-1.1-53.57-.58-80.364.12-6.282-.36-23.716.82-28.969 2.67-1.851 5.28-1.243 8.68-1.104l.14.748-5.29.213c-.96 2.461-.85.999-.38 3.055 3.13 13.669 1.38 36.202 1.51 49.381.14 15-.17 113.25 2.79 119.16 6.85 2.16 17.51.89 25.93 2.69 7.01-2.66 3.65-14.65 4.54-21.98 1.74 6.67 1.01 18.02.71 25-13.52-2.47-20.32-2.39-34.03-2.36.04-11.4-1.39-34.82-2.26-46.45-.6.95-1.59 18.81-1.77 21.45-.76-3.15.16-32.37-.81-40.47"/><path fill="#cd84f6" d="M1178.94 952.921c14.91-.239 20.54-.519 34.8 2.531-9.75 2.5-27.14 4.407-37.19 1.764-1.62-.426-1.84-2.008-2.9-4.082z"/><path fill="#6d269c" d="M1244.7 994.823c.19-7.627-.76-34.735.84-40.424l2.05-.38c36.52-.802 74.75-.215 111.4-.176l.03 35.462c-.14 3.469.57 2.344-1.11 4.464-13.19 1.354-32.22 1.021-45.69 1.024z"/><path fill="#4b157a" d="M1244.7 994.823c.19-7.627-.76-34.735.84-40.424l2.05-.38 1.52 2.372c1.26 10.905 1.45 17.184 1.38 28.119l13.52-.196c25.52.333 63.7-.482 88.27 1.255 1.93 1.683 3.11 2.683 5.22 4.212l1.52-.476c-.14 3.469.57 2.344-1.11 4.464-13.19 1.354-32.22 1.021-45.69 1.024z"/><path fill="#cd84f6" d="M1247.59 954.019c36.52-.802 74.75-.215 111.4-.176l.03 35.462-1.52.476c-2.11-1.529-3.29-2.529-5.22-4.212 3.25-3.385 2.15-21.054 2.32-27.431-17.78 4.536-95.44-2.381-104.33 1.479 2.54.181 5.08.295 7.59.658l-2.14.372c-2.77 6.146-2.68 14.977-2.55 21.67 3.58.425 7.47.724 10.84 1.997l-13.52.196c.07-10.935-.12-17.214-1.38-28.119z"/><path fill="#6d269c" d="M1247.59 954.019c36.52-.802 74.75-.215 111.4-.176l.03 35.462-1.52.476c-2.11-1.529-3.29-2.529-5.22-4.212 3.25-3.385 2.15-21.054 2.32-27.431-1.2-1.009-2.26-1.825-3.93-1.833-33.39-.156-68.25-1.633-101.56.086zM1244.99 1137.8c-.14-7.79-1-34.06.54-40.38l2.31-.79c35 1.26 76.37-1.16 109.91.78 1.06 1.68.83.89 1.03 2.24.95 10.83.42 26.58.25 37.64-36.23-.12-78.15-1.15-114.04.51"/><path fill="#3d0f6a" d="M1244.99 1137.8c-.14-7.79-1-34.06.54-40.38l2.31-.79c.33 2.77.1 2.96 1.15 5.4.8 8.1.85 17.62 1.09 25.86 5.61-.16 11.26-.23 16.88-.1 29.66.69 59.55-.65 89.18.49 1.14-9.65-.86-19.57 2.64-28.63.95 10.83.42 26.58.25 37.64-36.23-.12-78.15-1.15-114.04.51"/><path fill="#cd84f6" d="M1248.99 1102.03c3.15-2.16 97.36-2.76 106.62-1.66-2.69 3.22-9.4 3.43-13.33 2.92-14.07-1.8-83.73 2.76-93.29-1.26"/><path fill="#6d269c" d="M1245.03 1027c16.28-.19 39.73-1 55.62.13 19.45-.3 38.9-.29 58.34.01l.06 31.56c-.13 3.74.23 4.97-1.83 7.22-9.92 1.39-30.02.92-40.71.92h-71.47z"/><path fill="#3d0f6a" d="M1245.03 1027c16.28-.19 39.73-1 55.62.13-10.35 1.43-45.77-1.11-52.57 1.11-.64 1.74-.59 1.01-.57 2.11l1.58 2.54c1.1 8.11 1.02 16.07 1.11 24.24 22.93-1.76 46.24-.99 69.25-.51 9.79.21 24.61-.06 33.72.89l2.66 3.25c2.58-.33 1.45.19 3.22-2.06-.13 3.74.23 4.97-1.83 7.22-9.92 1.39-30.02.92-40.71.92h-71.47z"/><path fill="#cd84f6" d="M1300.65 1027.13c19.45-.3 38.9-.29 58.34.01l.06 31.56c-1.77 2.25-.64 1.73-3.22 2.06l-2.66-3.25c2.02-3.58.79-17.29 1.91-24.36-33.14 1.38-72.41.02-105.99-.26l-1.58-2.54c-.02-1.1-.07-.37.57-2.11 6.8-2.22 42.22.32 52.57-1.11"/><path fill="#6d269c" d="M1300.65 1027.13c19.45-.3 38.9-.29 58.34.01l.06 31.56c-1.77 2.25-.64 1.73-3.22 2.06l-2.66-3.25c2.02-3.58.79-17.29 1.91-24.36.12-3.34.55-1.9-1-4.55-10.69-1.19-98.49-.12-106.57 1.75-.02-1.1-.07-.37.57-2.11 6.8-2.22 42.22.32 52.57-1.11M1388.1 1248.48c7.05-52.92 13.83-105.88 20.33-158.87 9.34 10.61-.57 36.55 3.54 47.65-.24 12.92-11.67 112-15.23 118.54-15.85-9.72-77.1-21.82-88.1-29.98 19.58 3.99 58.9 16.68 79.46 22.66"/></svg>