<svg version="1.1" xmlns="http://www.w3.org/2000/svg" style="display: block;" viewBox="0 0 2048 2048" width="1920" height="1920" preserveAspectRatio="none">
<defs>
	<linearGradient id="Gradient1" gradientUnits="userSpaceOnUse" x1="1026.76" y1="1234.25" x2="1022.04" y2="1021.98">
		<stop class="stop0" offset="0" stop-opacity="1" stop-color="rgb(76,22,127)"/>
		<stop class="stop1" offset="1" stop-opacity="1" stop-color="rgb(116,42,163)"/>
	</linearGradient>
	<linearGradient id="Gradient2" gradientUnits="userSpaceOnUse" x1="1587.43" y1="1526.77" x2="1406.86" y2="1109.39">
		<stop class="stop0" offset="0" stop-opacity="1" stop-color="rgb(96,29,143)"/>
		<stop class="stop1" offset="1" stop-opacity="1" stop-color="rgb(146,61,186)"/>
	</linearGradient>
	<linearGradient id="Gradient3" gradientUnits="userSpaceOnUse" x1="542.603" y1="1227.4" x2="562.811" y2="1238.36">
		<stop class="stop0" offset="0" stop-opacity="1" stop-color="rgb(82,54,129)"/>
		<stop class="stop1" offset="1" stop-opacity="1" stop-color="rgb(126,35,180)"/>
	</linearGradient>
	<linearGradient id="Gradient4" gradientUnits="userSpaceOnUse" x1="862.749" y1="1020.6" x2="976.059" y2="1108.94">
		<stop class="stop0" offset="0" stop-opacity="1" stop-color="rgb(54,14,99)"/>
		<stop class="stop1" offset="1" stop-opacity="1" stop-color="rgb(94,33,142)"/>
	</linearGradient>
	<linearGradient id="Gradient5" gradientUnits="userSpaceOnUse" x1="792.123" y1="779.12" x2="1011.53" y2="764.903">
		<stop class="stop0" offset="0" stop-opacity="1" stop-color="rgb(137,52,176)"/>
		<stop class="stop1" offset="1" stop-opacity="1" stop-color="rgb(162,76,208)"/>
	</linearGradient>
	<linearGradient id="Gradient6" gradientUnits="userSpaceOnUse" x1="831.416" y1="772.373" x2="1014.89" y2="782.458">
		<stop class="stop0" offset="0" stop-opacity="1" stop-color="rgb(73,22,115)"/>
		<stop class="stop1" offset="1" stop-opacity="1" stop-color="rgb(113,42,158)"/>
	</linearGradient>
	<linearGradient id="Gradient7" gradientUnits="userSpaceOnUse" x1="394.112" y1="1140.08" x2="843.981" y2="1127.72">
		<stop class="stop0" offset="0" stop-opacity="1" stop-color="rgb(66,12,106)"/>
		<stop class="stop1" offset="1" stop-opacity="1" stop-color="rgb(139,55,185)"/>
	</linearGradient>
</defs>
<path transform="translate(0,0)" fill="url(#Gradient7)" d="M 1015.2 420.825 C 1014.6 466.076 1015.61 513.245 1015.53 558.88 C 1015.6 595.231 1016.42 634.54 1015.53 670.593 L 1015.51 721.724 C 1015.77 744.611 1015.82 767.501 1015.64 790.389 L 1015.94 927.061 L 1015.85 941.758 C 1011.06 946.137 1003.66 952.456 998.155 955.84 C 994.017 960.237 974.508 975.054 969.161 978.755 C 965.044 982.503 948.131 995.193 943.561 998.663 C 938.596 1002.43 911.884 1024.51 907.898 1026.38 C 886.037 1044.71 849.672 1070.64 830.451 1088.76 C 843.064 1123.35 853.541 1160.9 866.572 1195.64 C 870.575 1206.31 876.672 1228.38 880.977 1237.58 C 873.075 1243.33 860.682 1250.42 852.081 1255.61 C 831.431 1267.95 810.696 1280.15 789.875 1292.2 L 644.704 1379.59 L 471.651 1482.99 C 449.637 1496.12 424.338 1513.08 402.069 1524.99 C 395.555 1529.11 380.559 1539.27 373.835 1540.51 L 372.89 1539.7 L 374.271 1536.99 C 377.838 1527.23 389.349 1507.55 394.691 1498.33 C 401.275 1486.97 409.238 1471.95 416.317 1461.13 C 419.136 1454.71 428.101 1439.99 432.144 1432.96 L 465.93 1374.55 L 521.821 1277.31 C 531.831 1259.92 542.854 1239.79 553.519 1222.97 C 562.286 1204.95 581.192 1174.31 591.739 1156.14 C 608.284 1127.62 625.98 1094.46 643.419 1066.98 C 644.454 1064.16 653.849 1048.11 655.593 1045.11 C 665.227 1028.51 674.6 1011.34 684.605 995.023 C 685.608 992.297 698.607 970.187 701.049 965.929 L 743.365 892.373 L 930.34 563.218 L 972.403 489.504 C 981.193 473.94 1004.45 432.52 1015.2 420.825 z"/>
<path transform="translate(0,0)" fill="url(#Gradient6)" d="M 1015.2 420.825 C 1014.6 466.076 1015.61 513.245 1015.53 558.88 C 1015.6 595.231 1016.42 634.54 1015.53 670.593 L 1015.51 721.724 C 1015.77 744.611 1015.82 767.501 1015.64 790.389 L 1015.94 927.061 L 1015.85 941.758 C 1011.06 946.137 1003.66 952.456 998.155 955.84 C 994.017 960.237 974.508 975.054 969.161 978.755 C 965.044 982.503 948.131 995.193 943.561 998.663 C 938.596 1002.43 911.884 1024.51 907.898 1026.38 C 886.037 1044.71 849.672 1070.64 830.451 1088.76 C 843.064 1123.35 853.541 1160.9 866.572 1195.64 C 870.575 1206.31 876.672 1228.38 880.977 1237.58 C 876.136 1237.75 872.483 1238.72 868.744 1236.72 L 870.18 1235.2 C 869.625 1228.17 854.464 1192.3 851.369 1182.84 C 847.765 1171.82 842.339 1155.4 838.344 1144.33 C 835.392 1138.76 833.163 1130.55 830.9 1124.46 C 825.192 1109.11 819.603 1090.39 812.015 1075.91 C 814.41 1069.97 815.779 1065.3 817.582 1059.17 L 816.34 1059.56 L 813.775 1065 L 812.629 1065.35 C 812.969 1061.93 811.407 1058.96 810.174 1055.52 C 810.904 1051.83 814.578 1046.76 816.715 1043.37 C 817.242 1039.21 813.607 1031.77 813.359 1028.95 C 812.923 1021.54 821.055 988.42 824.984 983.204 C 843.766 958.273 822.659 954.305 838.856 928.141 C 837.071 918.592 839.189 913.365 836.735 904.835 C 836.087 902.585 835.464 900.415 834.841 898.151 C 830.538 896.29 819.22 893.683 816.745 891.839 C 809.699 886.588 816.691 862.464 814.829 854.064 C 813.395 847.59 811.292 842.091 809.805 835.729 C 808.214 828.923 812.859 826.067 817.283 820.002 C 815.823 813.695 816.091 813.439 819.931 807.513 C 824.994 799.698 821.833 785.172 825.249 775.331 C 826.723 771.087 827.215 769.306 825.582 766.144 C 819.23 774.376 809.73 793.41 804.049 803.367 L 763.801 873.461 C 756.286 886.641 736.358 916.547 731.343 929.66 C 730.083 925.83 731.943 923.126 733.653 918.988 C 720.213 936.47 708.619 965.304 695.673 984.069 C 689.926 992.4 686.976 1003.83 679.759 1012.23 C 682.142 1006.81 684.616 1000.96 684.605 995.023 C 685.608 992.297 698.607 970.187 701.049 965.929 L 743.365 892.373 L 930.34 563.218 L 972.403 489.504 C 981.193 473.94 1004.45 432.52 1015.2 420.825 z"/>
<path transform="translate(0,0)" fill="url(#Gradient5)" d="M 1015.2 420.825 C 1014.6 466.076 1015.61 513.245 1015.53 558.88 C 1015.6 595.231 1016.42 634.54 1015.53 670.593 L 1015.51 721.724 C 1013.66 717.238 1015.04 713.567 1011 705.313 L 1010.3 703.858 C 1009.69 695.783 1010.01 677.293 1006.38 671.752 L 1005.51 675.184 C 1003.26 672.54 1001.12 649.667 1001.8 645.567 C 1004.46 629.469 1005.5 614.952 1004.4 598.606 C 1004.02 592.926 1004.94 587.046 1004.44 581.267 C 1003.12 584.142 1005.1 587.713 1003.35 591.629 C 1001.37 587.293 1004.92 565.109 1005.16 558.381 C 1005.79 540.983 1005.19 523.418 1006.29 506.098 C 1006.92 496.316 1005 499.409 1003.05 491.14 C 1001.45 484.323 1004.69 477.318 998.926 470.984 C 979.753 528.721 962.956 589.826 945.225 648.368 L 868.134 897.139 C 854.98 939.786 842.189 982.64 828.637 1025.16 C 825.14 1036.13 821.64 1048.58 817.582 1059.17 L 816.34 1059.56 L 813.775 1065 L 812.629 1065.35 C 812.969 1061.93 811.407 1058.96 810.174 1055.52 C 810.904 1051.83 814.578 1046.76 816.715 1043.37 C 817.242 1039.21 813.607 1031.77 813.359 1028.95 C 812.923 1021.54 821.055 988.42 824.984 983.204 C 843.766 958.273 822.659 954.305 838.856 928.141 C 837.071 918.592 839.189 913.365 836.735 904.835 C 836.087 902.585 835.464 900.415 834.841 898.151 C 830.538 896.29 819.22 893.683 816.745 891.839 C 809.699 886.588 816.691 862.464 814.829 854.064 C 813.395 847.59 811.292 842.091 809.805 835.729 C 808.214 828.923 812.859 826.067 817.283 820.002 C 815.823 813.695 816.091 813.439 819.931 807.513 C 824.994 799.698 821.833 785.172 825.249 775.331 C 826.723 771.087 827.215 769.306 825.582 766.144 C 819.23 774.376 809.73 793.41 804.049 803.367 L 763.801 873.461 C 756.286 886.641 736.358 916.547 731.343 929.66 C 730.083 925.83 731.943 923.126 733.653 918.988 C 720.213 936.47 708.619 965.304 695.673 984.069 C 689.926 992.4 686.976 1003.83 679.759 1012.23 C 682.142 1006.81 684.616 1000.96 684.605 995.023 C 685.608 992.297 698.607 970.187 701.049 965.929 L 743.365 892.373 L 930.34 563.218 L 972.403 489.504 C 981.193 473.94 1004.45 432.52 1015.2 420.825 z"/>
<path transform="translate(0,0)" fill="rgb(109,38,156)" d="M 1015.2 420.825 C 1014.6 466.076 1015.61 513.245 1015.53 558.88 C 1015.6 595.231 1016.42 634.54 1015.53 670.593 L 1015.51 721.724 C 1013.66 717.238 1015.04 713.567 1011 705.313 L 1010.3 703.858 C 1009.69 695.783 1010.01 677.293 1006.38 671.752 L 1005.51 675.184 C 1003.26 672.54 1001.12 649.667 1001.8 645.567 C 1004.46 629.469 1005.5 614.952 1004.4 598.606 C 1004.02 592.926 1004.94 587.046 1004.44 581.267 C 1003.12 584.142 1005.1 587.713 1003.35 591.629 C 1001.37 587.293 1004.92 565.109 1005.16 558.381 C 1005.79 540.983 1005.19 523.418 1006.29 506.098 C 1006.92 496.316 1005 499.409 1003.05 491.14 C 1001.45 484.323 1004.69 477.318 998.926 470.984 L 998.562 470.071 C 985.296 482.399 945.209 555.531 934.056 575.239 C 898.355 638.318 860.029 702.597 825.582 766.144 C 819.23 774.376 809.73 793.41 804.049 803.367 L 763.801 873.461 C 756.286 886.641 736.358 916.547 731.343 929.66 C 730.083 925.83 731.943 923.126 733.653 918.988 C 720.213 936.47 708.619 965.304 695.673 984.069 C 689.926 992.4 686.976 1003.83 679.759 1012.23 C 682.142 1006.81 684.616 1000.96 684.605 995.023 C 685.608 992.297 698.607 970.187 701.049 965.929 L 743.365 892.373 L 930.34 563.218 L 972.403 489.504 C 981.193 473.94 1004.45 432.52 1015.2 420.825 z"/>
<path transform="translate(0,0)" fill="rgb(181,102,222)" d="M 733.653 918.988 C 755.449 884.477 777.289 841.429 798.002 805.253 L 907.107 611.98 C 920.462 587.969 934.793 564.257 947.792 539.819 C 959.425 517.945 973.549 497.645 983.35 474.402 C 986.135 467.797 994.082 459.687 997.335 452.789 C 1001.03 445.578 1002.74 438.803 1009.84 433.861 L 1010.98 434.615 C 1010.43 444.573 1002.53 459.817 998.562 470.071 C 985.296 482.399 945.209 555.531 934.056 575.239 C 898.355 638.318 860.029 702.597 825.582 766.144 C 819.23 774.376 809.73 793.41 804.049 803.367 L 763.801 873.461 C 756.286 886.641 736.358 916.547 731.343 929.66 C 730.083 925.83 731.943 923.126 733.653 918.988 z"/>
<path transform="translate(0,0)" fill="rgb(75,21,122)" d="M 1015.53 670.593 C 1009.56 639 1009.26 617.554 1009.88 585.772 C 1010.05 576.919 1009.19 565.639 1010.4 557.122 C 1013.03 557.676 1013.1 557.714 1015.53 558.88 C 1015.6 595.231 1016.42 634.54 1015.53 670.593 z"/>
<path transform="translate(0,0)" fill="url(#Gradient4)" d="M 1014.04 926.97 L 1015.94 927.061 L 1015.85 941.758 C 1011.06 946.137 1003.66 952.456 998.155 955.84 C 994.017 960.237 974.508 975.054 969.161 978.755 C 965.044 982.503 948.131 995.193 943.561 998.663 C 938.596 1002.43 911.884 1024.51 907.898 1026.38 C 886.037 1044.71 849.672 1070.64 830.451 1088.76 C 843.064 1123.35 853.541 1160.9 866.572 1195.64 C 870.575 1206.31 876.672 1228.38 880.977 1237.58 C 876.136 1237.75 872.483 1238.72 868.744 1236.72 L 870.18 1235.2 C 869.625 1228.17 854.464 1192.3 851.369 1182.84 C 847.765 1171.82 842.339 1155.4 838.344 1144.33 C 838.734 1140.81 838.361 1139.84 837.445 1136.31 L 836.992 1134.6 C 832.463 1117.16 821.053 1096.58 816.083 1078.36 C 827.074 1065.64 850.456 1049.6 864.096 1039.07 L 933.495 984.988 C 952.02 970.712 970.643 956.544 988.876 941.901 C 993.976 937.804 999.497 933.265 1004.96 929.761 C 1009.85 929.548 1010.27 929.737 1014.04 926.97 z"/>
<path transform="translate(0,0)" fill="rgb(61,15,106)" d="M 973.956 969.505 C 971.963 972.663 970.032 975.148 969.161 978.755 C 965.044 982.503 948.131 995.193 943.561 998.663 C 938.596 1002.43 911.884 1024.51 907.898 1026.38 C 907.744 1025.63 908.01 1024.86 908.111 1024.11 C 910.791 1021.93 921.096 1014.34 922.371 1012.2 C 917.134 1013.64 912.402 1020.69 906.601 1022.65 L 906.635 1021.57 C 926.101 1005.24 953.142 985.618 973.956 969.505 z"/>
<path transform="translate(0,0)" fill="rgb(61,15,106)" d="M 1014.04 926.97 L 1015.94 927.061 L 1015.85 941.758 C 1011.06 946.137 1003.66 952.456 998.155 955.84 L 996.612 955.592 C 992.868 957.136 992.827 956.925 989.909 959.894 L 989.829 958.531 C 991.696 957.181 991.748 956.483 992.491 954.335 C 998.739 944.497 1010.79 946.488 1014.04 926.97 z"/>
<path transform="translate(0,0)" fill="rgb(44,11,82)" d="M 992.491 954.335 C 991.748 956.483 991.696 957.181 989.829 958.531 L 989.909 959.894 C 992.827 956.925 992.868 957.136 996.612 955.592 L 998.155 955.84 C 994.017 960.237 974.508 975.054 969.161 978.755 C 970.032 975.148 971.963 972.663 973.956 969.505 C 976.682 966.664 988.498 957.652 992.491 954.335 z"/>
<path transform="translate(0,0)" fill="rgb(109,38,156)" d="M 1010.3 703.858 L 1011 705.313 C 1015.04 713.567 1013.66 717.238 1015.51 721.724 C 1015.77 744.611 1015.82 767.501 1015.64 790.389 L 1015.94 927.061 L 1014.04 926.97 C 1010.27 929.737 1009.85 929.548 1004.96 929.761 L 1008.11 928.043 C 1011.45 923.25 1010.07 884.174 1010.04 875.063 C 1008.57 857.898 1009.17 837.254 1009.18 819.75 L 1010.3 703.858 z"/>
<path transform="translate(0,0)" fill="rgb(75,21,122)" d="M 1010.04 875.063 C 1013 860.657 1013.61 844.988 1014.31 830.362 C 1014.78 820.726 1013.36 798.526 1015.64 790.389 L 1015.94 927.061 L 1014.04 926.97 C 1010.27 929.737 1009.85 929.548 1004.96 929.761 L 1008.11 928.043 C 1011.45 923.25 1010.07 884.174 1010.04 875.063 z"/>
<path transform="translate(0,0)" fill="rgb(61,15,106)" d="M 811.072 1078.38 L 812.015 1075.91 C 819.603 1090.39 825.192 1109.11 830.9 1124.46 C 833.163 1130.55 835.392 1138.76 838.344 1144.33 C 842.339 1155.4 847.765 1171.82 851.369 1182.84 C 854.464 1192.3 869.625 1228.17 870.18 1235.2 L 868.744 1236.72 C 872.483 1238.72 876.136 1237.75 880.977 1237.58 C 873.075 1243.33 860.682 1250.42 852.081 1255.61 C 831.431 1267.95 810.696 1280.15 789.875 1292.2 L 644.704 1379.59 L 471.651 1482.99 C 449.637 1496.12 424.338 1513.08 402.069 1524.99 C 398.305 1524.41 395.967 1523.95 392.18 1524.42 L 392.878 1522.86 L 396.415 1520.16 C 398.698 1518.45 410.18 1500.17 415.958 1493.85 C 440.638 1466.83 466.262 1440.91 491.427 1414.34 L 691.069 1205.58 L 752.501 1140.91 C 771.814 1120.76 792.865 1099.44 811.072 1078.38 z"/>
<path transform="translate(0,0)" fill="rgb(109,38,156)" d="M 811.072 1078.38 L 812.015 1075.91 C 819.603 1090.39 825.192 1109.11 830.9 1124.46 C 833.163 1130.55 835.392 1138.76 838.344 1144.33 C 842.339 1155.4 847.765 1171.82 851.369 1182.84 C 854.464 1192.3 869.625 1228.17 870.18 1235.2 L 868.744 1236.72 C 858.909 1226.13 817.63 1102.72 811.072 1078.38 z"/>
<path transform="translate(0,0)" fill="url(#Gradient3)" d="M 733.653 918.988 C 731.943 923.126 730.083 925.83 731.343 929.66 C 729.407 938.223 712.106 963.607 707.6 972.089 C 700.251 985.922 691.307 1000.26 683.638 1013.82 L 444.52 1429.55 C 438.223 1440.56 431.386 1451.34 425.304 1462.38 C 414.674 1481.67 405.863 1501.4 391.479 1518.31 C 386.908 1523.69 380.565 1530.95 377.383 1537.17 L 375.185 1538.08 L 374.271 1536.99 C 377.838 1527.23 389.349 1507.55 394.691 1498.33 C 401.275 1486.97 409.238 1471.95 416.317 1461.13 C 419.136 1454.71 428.101 1439.99 432.144 1432.96 L 465.93 1374.55 L 521.821 1277.31 C 531.831 1259.92 542.854 1239.79 553.519 1222.97 C 562.286 1204.95 581.192 1174.31 591.739 1156.14 C 608.284 1127.62 625.98 1094.46 643.419 1066.98 C 644.454 1064.16 653.849 1048.11 655.593 1045.11 C 665.227 1028.51 674.6 1011.34 684.605 995.023 C 684.616 1000.96 682.142 1006.81 679.759 1012.23 C 686.976 1003.83 689.926 992.4 695.673 984.069 C 708.619 965.304 720.213 936.47 733.653 918.988 z"/>
<path transform="translate(0,0)" fill="rgb(75,21,122)" d="M 553.519 1222.97 C 553.503 1227.81 553.231 1228.38 551.864 1233.13 L 466.42 1382.65 C 452.517 1406.88 440.644 1431.88 424.427 1454.92 C 421.896 1458.52 420.468 1459.85 416.317 1461.13 C 419.136 1454.71 428.101 1439.99 432.144 1432.96 L 465.93 1374.55 L 521.821 1277.31 C 531.831 1259.92 542.854 1239.79 553.519 1222.97 z"/>
<path transform="translate(0,0)" fill="rgb(109,38,156)" d="M 643.419 1066.98 C 642.309 1071.15 641.303 1075.02 640.377 1079.25 C 637.146 1086.55 633.379 1091.45 629.958 1098.11 C 621.112 1115.34 610.925 1131.31 601.445 1148.02 C 590.002 1168.53 578.383 1188.94 566.591 1209.26 C 563.903 1213.84 554.923 1229.51 551.864 1233.13 C 553.231 1228.38 553.503 1227.81 553.519 1222.97 C 562.286 1204.95 581.192 1174.31 591.739 1156.14 C 608.284 1127.62 625.98 1094.46 643.419 1066.98 z"/>
<path transform="translate(0,0)" fill="rgb(109,38,156)" d="M 684.605 995.023 C 684.616 1000.96 682.142 1006.81 679.759 1012.23 C 673.574 1023.27 666.892 1034.57 660.474 1045.47 C 655.621 1053.72 646.313 1072.35 640.377 1079.25 C 641.303 1075.02 642.309 1071.15 643.419 1066.98 C 644.454 1064.16 653.849 1048.11 655.593 1045.11 C 665.227 1028.51 674.6 1011.34 684.605 995.023 z"/>
<path transform="translate(0,0)" fill="rgb(109,38,156)" d="M 1038.98 956.253 C 1037.97 940.337 1038.62 922.092 1038.72 906 L 1038.89 827.486 C 1038.05 740.652 1038 653.812 1038.74 566.977 L 1038.36 454.581 C 1038.39 447.124 1037.47 428.157 1038.74 422.5 L 1040.51 423.051 L 1130.66 579.607 L 1166.63 641.783 C 1173.66 653.845 1183.53 669.683 1189.69 681.868 C 1192.82 685.005 1227.09 747.15 1232.2 755.813 C 1252.85 790.873 1274.65 828.531 1294.26 864.443 C 1300.45 875.781 1307.74 887.308 1313.49 898.845 L 1298.82 892.498 C 1250.07 871.504 1201.59 849.9 1153.39 827.69 C 1148.91 843.19 1145.3 861.613 1141.7 877.535 C 1136.03 902.254 1130.19 926.932 1124.18 951.569 C 1120.42 967.61 1117.41 983.601 1112.98 999.495 C 1110.81 998.241 1102.75 993.788 1101.26 992.515 C 1086.47 985.227 1053.16 965.451 1038.98 956.253 z"/>
<path transform="translate(0,0)" fill="rgb(181,102,222)" d="M 1040.51 423.051 L 1130.66 579.607 L 1166.63 641.783 C 1173.66 653.845 1183.53 669.683 1189.69 681.868 C 1192.82 685.005 1227.09 747.15 1232.2 755.813 C 1252.85 790.873 1274.65 828.531 1294.26 864.443 C 1300.45 875.781 1307.74 887.308 1313.49 898.845 L 1298.82 892.498 C 1288.34 873.988 1226.5 864.387 1205.69 844.189 C 1210.18 843.685 1215.71 846.881 1221.05 846.454 C 1212.88 837.586 1170.93 826.739 1165.75 817.906 L 1157.26 814.383 C 1153.14 812.203 1147.8 809.981 1143.47 808.03 C 1130.42 768.963 1117.91 717.262 1106.98 676.773 C 1086.44 602.749 1067.01 528.423 1048.69 453.82 C 1045.71 445.577 1042.73 435.77 1040.17 427.364 L 1040.51 423.051 z"/>
<path transform="translate(0,0)" fill="rgb(205,132,246)" d="M 1040.51 423.051 L 1130.66 579.607 L 1166.63 641.783 C 1173.66 653.845 1183.53 669.683 1189.69 681.868 C 1192.82 685.005 1227.09 747.15 1232.2 755.813 C 1252.85 790.873 1274.65 828.531 1294.26 864.443 C 1300.45 875.781 1307.74 887.308 1313.49 898.845 L 1298.82 892.498 C 1288.34 873.988 1226.5 864.387 1205.69 844.189 C 1210.18 843.685 1215.71 846.881 1221.05 846.454 C 1212.88 837.586 1170.93 826.739 1165.75 817.906 C 1180.01 822.827 1197.14 830.543 1210.68 837.399 C 1236.21 850.313 1265.16 861.968 1289.99 875.725 L 1177.14 677.931 C 1172.32 669.372 1165.65 661.198 1160.85 652.626 C 1134.44 604.506 1107.49 556.69 1080 509.186 C 1074.02 499.091 1068.43 490.891 1062.11 481.145 C 1057.31 473.743 1054.04 461.934 1048.69 453.82 C 1045.71 445.577 1042.73 435.77 1040.17 427.364 L 1040.51 423.051 z"/>
<path transform="translate(0,0)" fill="rgb(109,38,156)" d="M 1189.69 681.868 C 1192.82 685.005 1227.09 747.15 1232.2 755.813 C 1252.85 790.873 1274.65 828.531 1294.26 864.443 C 1300.45 875.781 1307.74 887.308 1313.49 898.845 L 1298.82 892.498 C 1288.34 873.988 1226.5 864.387 1205.69 844.189 C 1210.18 843.685 1215.71 846.881 1221.05 846.454 C 1212.88 837.586 1170.93 826.739 1165.75 817.906 C 1180.01 822.827 1197.14 830.543 1210.68 837.399 C 1236.21 850.313 1265.16 861.968 1289.99 875.725 C 1294.05 879.626 1298.46 882.865 1302.91 886.316 C 1296.84 874.137 1286 858.658 1279.21 845.995 C 1262.94 815.353 1244.28 784.244 1228.06 753.833 C 1221.63 741.775 1189.98 691.145 1189.69 681.868 z"/>
<path transform="translate(0,0)" fill="rgb(75,21,122)" d="M 1038.98 956.253 C 1037.97 940.337 1038.62 922.092 1038.72 906 L 1038.89 827.486 C 1038.05 740.652 1038 653.812 1038.74 566.977 L 1038.36 454.581 C 1038.39 447.124 1037.47 428.157 1038.74 422.5 L 1040.51 423.051 L 1040.17 427.364 C 1039.77 441.073 1041.21 455.305 1041.63 469.05 C 1042.51 498.039 1043.93 528.481 1042.92 557.429 C 1044.25 638.667 1044.72 719.917 1044.34 801.166 C 1044.26 813.307 1043.02 826.559 1043.18 838.169 C 1043.66 873.91 1045.5 911.879 1044.02 947.547 C 1067.6 958.935 1084 969.252 1106.23 983.106 C 1110.45 968.098 1113.79 950.501 1117.12 935.102 L 1132.83 863.173 C 1135.38 851.327 1140.86 823.903 1144.64 813.408 L 1147.3 812.062 C 1151.44 814.119 1152.64 814.264 1157.26 814.383 L 1165.75 817.906 C 1170.93 826.739 1212.88 837.586 1221.05 846.454 C 1215.71 846.881 1210.18 843.685 1205.69 844.189 C 1226.5 864.387 1288.34 873.988 1298.82 892.498 C 1250.07 871.504 1201.59 849.9 1153.39 827.69 C 1148.91 843.19 1145.3 861.613 1141.7 877.535 C 1136.03 902.254 1130.19 926.932 1124.18 951.569 C 1120.42 967.61 1117.41 983.601 1112.98 999.495 C 1110.81 998.241 1102.75 993.788 1101.26 992.515 C 1086.47 985.227 1053.16 965.451 1038.98 956.253 z"/>
<path transform="translate(0,0)" fill="rgb(61,15,106)" d="M 1038.98 956.253 C 1037.97 940.337 1038.62 922.092 1038.72 906 L 1038.89 827.486 C 1038.05 740.652 1038 653.812 1038.74 566.977 L 1038.36 454.581 C 1038.39 447.124 1037.47 428.157 1038.74 422.5 L 1040.51 423.051 L 1040.17 427.364 C 1039.77 441.073 1041.21 455.305 1041.63 469.05 C 1042.51 498.039 1043.93 528.481 1042.92 557.429 C 1040.29 568.552 1041.54 624.915 1041.56 641.096 L 1040.7 766.499 C 1040.71 800.291 1042.88 834.795 1041.63 868.748 C 1041.12 882.588 1039.87 940.23 1043.78 949.375 L 1041.14 952.064 C 1044.85 964.376 1095.28 979.469 1101.26 992.515 C 1086.47 985.227 1053.16 965.451 1038.98 956.253 z"/>
<path transform="translate(0,0)" fill="rgb(75,21,122)" d="M 1410.58 1072.18 C 1444.07 1125.94 1474.55 1181.14 1506.14 1235.96 L 1678.81 1533.78 C 1679.74 1534.93 1684.14 1543.36 1685.13 1545.2 C 1631.43 1514.39 1578.16 1482.83 1525.34 1450.54 L 1347.79 1344.48 C 1289.63 1309.31 1227.05 1275.31 1169.61 1239.61 C 1170.24 1234.04 1182.36 1201.05 1184.98 1190.18 C 1215.66 1198.85 1252.03 1208.3 1282.16 1218.27 C 1285.79 1219.18 1305.27 1224.3 1308.64 1225.82 C 1319.64 1233.98 1380.89 1246.08 1396.74 1255.8 C 1400.3 1249.26 1411.73 1150.18 1411.97 1137.26 C 1407.86 1126.16 1417.77 1100.22 1408.43 1089.61 L 1410.58 1072.18 z"/>
<path transform="translate(0,0)" fill="url(#Gradient2)" d="M 1410.58 1072.18 C 1444.07 1125.94 1474.55 1181.14 1506.14 1235.96 L 1678.81 1533.78 L 1676 1534.96 C 1669.34 1532.97 1663.21 1523.56 1658.83 1517.97 C 1657.45 1515.03 1656.07 1513.69 1653.98 1511.26 L 1503.18 1361.76 C 1487.68 1346.3 1409.04 1265.16 1396.88 1259.37 C 1397.67 1256.85 1397.78 1258.04 1396.74 1255.8 C 1400.3 1249.26 1411.73 1150.18 1411.97 1137.26 C 1407.86 1126.16 1417.77 1100.22 1408.43 1089.61 L 1410.58 1072.18 z"/>
<path transform="translate(0,0)" fill="rgb(109,38,156)" d="M 1410.58 1072.18 C 1444.07 1125.94 1474.55 1181.14 1506.14 1235.96 L 1678.81 1533.78 L 1676 1534.96 C 1669.34 1532.97 1663.21 1523.56 1658.83 1517.97 C 1657.45 1515.03 1656.07 1513.69 1653.98 1511.26 C 1652.29 1508.62 1652.55 1507.05 1652.42 1503.91 C 1651.26 1500.93 1644.16 1489.88 1642.1 1486.38 C 1581.07 1382.59 1519.18 1279.21 1460.06 1174.34 C 1457.06 1169.02 1449.5 1157.14 1447.67 1152.09 C 1448.31 1151.01 1448.02 1151.56 1448.65 1150.13 C 1449.74 1147.67 1422.26 1099.93 1419.51 1092.77 C 1418.45 1088.55 1416.16 1084.69 1414.15 1080.78 C 1415.64 1094.63 1414.89 1123.82 1411.97 1137.26 C 1407.86 1126.16 1417.77 1100.22 1408.43 1089.61 L 1410.58 1072.18 z"/>
<path transform="translate(0,0)" fill="rgb(142,75,197)" d="M 1419.51 1092.77 C 1426.75 1099.54 1448.05 1141.17 1454.23 1152.17 L 1510.44 1250.57 C 1516.62 1261.57 1522.09 1273.02 1528.43 1284.01 L 1628.78 1458.69 C 1636.71 1472.79 1652.12 1494.36 1658.04 1508.25 L 1657.82 1509.67 C 1654.85 1507.63 1654.47 1506.78 1652.42 1503.91 C 1651.26 1500.93 1644.16 1489.88 1642.1 1486.38 C 1581.07 1382.59 1519.18 1279.21 1460.06 1174.34 C 1457.06 1169.02 1449.5 1157.14 1447.67 1152.09 C 1448.31 1151.01 1448.02 1151.56 1448.65 1150.13 C 1449.74 1147.67 1422.26 1099.93 1419.51 1092.77 z"/>
<path transform="translate(0,0)" fill="rgb(181,102,222)" d="M 1447.67 1152.09 C 1439.22 1135.24 1425.45 1116.91 1417.35 1099.24 C 1416.28 1096.89 1416.71 1095.31 1417.49 1093.21 L 1419.51 1092.77 C 1422.26 1099.93 1449.74 1147.67 1448.65 1150.13 C 1448.02 1151.56 1448.31 1151.01 1447.67 1152.09 z"/>
<path transform="translate(0,0)" fill="rgb(44,11,82)" d="M 1169.61 1239.61 L 1172.26 1236.4 C 1174.17 1237.12 1173.72 1236.75 1175.65 1236.86 C 1183.41 1237.3 1191.93 1242.83 1198.96 1246.35 C 1206.87 1252.64 1219.66 1258.29 1228.77 1263.54 L 1298.43 1304.56 L 1555.9 1457.6 C 1566.21 1463.73 1613.54 1488.42 1618.25 1493.28 C 1632.68 1500.39 1643.23 1503.41 1655.13 1515.68 L 1658.83 1517.97 C 1663.21 1523.56 1669.34 1532.97 1676 1534.96 L 1678.81 1533.78 C 1679.74 1534.93 1684.14 1543.36 1685.13 1545.2 C 1631.43 1514.39 1578.16 1482.83 1525.34 1450.54 L 1347.79 1344.48 C 1289.63 1309.31 1227.05 1275.31 1169.61 1239.61 z"/>
<path transform="translate(0,0)" fill="rgb(181,102,222)" d="M 1201.29 1203.21 C 1196.49 1201.53 1192.72 1200.78 1189.23 1197.22 L 1189.06 1195.77 C 1200.18 1193.2 1258.49 1216.37 1282.16 1218.27 C 1285.79 1219.18 1305.27 1224.3 1308.64 1225.82 C 1319.64 1233.98 1380.89 1246.08 1396.74 1255.8 C 1397.78 1258.04 1397.67 1256.85 1396.88 1259.37 C 1373.08 1251.44 1345.1 1244.43 1320.8 1237.49 L 1201.29 1203.21 z"/>
<path transform="translate(0,0)" fill="rgb(61,15,106)" d="M 411.465 1546.17 C 414.356 1543.82 419.965 1540.79 423.33 1538.66 C 467.675 1510.71 513.215 1484.82 558.226 1457.99 L 730.895 1355.44 C 763.511 1335.98 806.984 1308.28 839.961 1292.19 C 834.971 1302.52 818.293 1325.7 810.922 1336.05 C 802.655 1347.65 790.143 1367.31 781.641 1377.93 C 775.092 1388.48 765.158 1401.5 757.706 1411.77 C 745.12 1429.28 732.337 1446.66 719.358 1463.88 C 720.598 1466.25 722.632 1467.02 725.015 1468.41 C 738.917 1476.42 881.632 1563.45 882.377 1566.08 L 882.156 1566.33 C 869.658 1567.31 846.47 1566.54 832.906 1566.55 L 735.174 1566.61 L 413.569 1566.08 C 407.271 1565.97 387.682 1567.39 383.509 1564.83 L 384.077 1563.01 L 386.927 1561.55 C 395.391 1555.4 402.467 1551.37 411.465 1546.17 z"/>
<path transform="translate(0,0)" fill="rgb(109,38,156)" d="M 615.379 1433.92 C 678.65 1394.41 745.39 1357.75 808.935 1318.49 C 814.175 1315.25 818.159 1308.91 824.715 1305.17 C 821.069 1311.38 815.218 1316.32 810.598 1321.87 C 780.52 1358.02 753.097 1396.19 724.394 1433.42 C 721.582 1437.07 703.332 1460.22 704.071 1463.3 L 707.95 1464.42 L 706.894 1466.72 C 718.852 1477.31 752.233 1493.42 766.12 1504.52 C 754.598 1501.82 711 1473.58 701.919 1464.91 C 615.86 1492.62 528.639 1516.55 442.538 1544 C 433.426 1546.9 424.128 1552.3 414.7 1553.29 C 429.206 1541.07 441.499 1537.33 455.614 1528.26 C 492.673 1504.46 531.039 1484.12 568.653 1461.11 C 584.187 1451.61 599.753 1444.09 615.379 1433.92 z"/>
<path transform="translate(0,0)" fill="rgb(44,11,82)" d="M 408.829 1556.97 C 412.258 1558.99 420.467 1559.57 424.397 1559.36 C 489.671 1555.89 555.142 1558.6 620.483 1558.25 C 634.731 1558.17 649.369 1559.4 663.493 1559.34 C 729.924 1559.04 798.228 1554.26 863.967 1565.15 C 869.751 1566.11 876.358 1565.55 882.156 1566.33 C 869.658 1567.31 846.47 1566.54 832.906 1566.55 L 735.174 1566.61 L 413.569 1566.08 C 409.463 1562.63 409.479 1562.5 407.636 1557.35 L 408.829 1556.97 z"/>
<path transform="translate(0,0)" fill="rgb(181,102,222)" d="M 611.372 1430.06 C 626.852 1422.61 645.198 1409.79 660.495 1400.85 C 709.634 1372.14 757.892 1341.95 807.332 1313.71 C 814.182 1309.8 820.136 1304.65 827.46 1301.49 L 827.917 1302.13 L 824.715 1305.17 C 818.159 1308.91 814.175 1315.25 808.935 1318.49 C 745.39 1357.75 678.65 1394.41 615.379 1433.92 L 611.372 1430.06 z"/>
<path transform="translate(0,0)" fill="rgb(142,75,197)" d="M 413.204 1547.03 C 434.321 1536.78 456.082 1521.46 476.571 1509.8 C 521.778 1484.09 566.431 1456 611.372 1430.06 L 615.379 1433.92 C 599.753 1444.09 584.187 1451.61 568.653 1461.11 C 531.039 1484.12 492.673 1504.46 455.614 1528.26 C 441.499 1537.33 429.206 1541.07 414.7 1553.29 L 409.164 1556.19 C 406.968 1555.06 407.621 1555.69 406.127 1553.86 C 407.562 1550.21 409.603 1549.66 413.204 1547.03 z"/>
<path transform="translate(0,0)" fill="rgb(181,102,222)" d="M 707.95 1464.42 C 734.978 1476.94 757.892 1495.01 783.296 1508.67 C 812.917 1524.6 845.096 1549.92 874.592 1563.53 C 870.01 1563.75 862.882 1561.78 858.97 1559.72 C 838.289 1548.83 818.019 1536.42 798.243 1523.97 C 787.794 1517.39 776.018 1511.39 766.12 1504.52 C 752.233 1493.42 718.852 1477.31 706.894 1466.72 L 707.95 1464.42 z"/>
<path transform="translate(0,0)" fill="rgb(44,11,82)" d="M 725.015 1468.41 C 720.325 1467.48 715.173 1467.01 714.009 1462.11 C 715.313 1458.37 765.883 1392.63 772.421 1383.69 C 772.875 1385.89 769.898 1388.72 768.172 1392.49 C 772.48 1389.63 774.593 1382.22 781.641 1377.93 C 775.092 1388.48 765.158 1401.5 757.706 1411.77 C 745.12 1429.28 732.337 1446.66 719.358 1463.88 C 720.598 1466.25 722.632 1467.02 725.015 1468.41 z"/>
<path transform="translate(0,0)" fill="rgb(30,16,48)" d="M 411.465 1546.17 L 413.204 1547.03 C 409.603 1549.66 407.562 1550.21 406.127 1553.86 C 407.621 1555.69 406.968 1555.06 409.164 1556.19 L 408.829 1556.97 L 407.636 1557.35 C 409.479 1562.5 409.463 1562.63 413.569 1566.08 C 407.271 1565.97 387.682 1567.39 383.509 1564.83 L 384.077 1563.01 L 386.927 1561.55 C 395.391 1555.4 402.467 1551.37 411.465 1546.17 z"/>
<path transform="translate(0,0)" fill="rgb(109,38,156)" d="M 411.465 1546.17 L 413.204 1547.03 C 409.603 1549.66 407.562 1550.21 406.127 1553.86 C 407.621 1555.69 406.968 1555.06 409.164 1556.19 L 408.829 1556.97 L 407.636 1557.35 C 402.829 1558.98 391.411 1563.84 386.927 1561.55 C 395.391 1555.4 402.467 1551.37 411.465 1546.17 z"/>
<path transform="translate(0,0)" fill="rgb(61,15,106)" d="M 1209.47 1292.85 C 1224.86 1300.08 1235.75 1306.67 1249.86 1315.72 C 1283.82 1334.31 1317.15 1354.77 1350.44 1374.58 L 1480.44 1451.73 C 1523.07 1476.73 1565.56 1501.98 1607.89 1527.47 C 1615.28 1531.91 1664.27 1560.41 1666.63 1564.61 C 1665.78 1566.15 1666.36 1565.71 1665.17 1566.24 L 1399.72 1566.87 C 1354.78 1566.46 1309.84 1566.35 1264.89 1566.55 C 1237.43 1566.5 1208.3 1565.9 1180.98 1566.99 L 1168.52 1566.96 C 1193.07 1548.69 1231.42 1526.54 1258.31 1509.58 L 1303.98 1481 C 1310.43 1477 1321.66 1469.58 1328.25 1466.66 L 1328.68 1466 C 1328.46 1459.75 1293.64 1415.89 1287.38 1406.84 C 1279.62 1397.34 1269.83 1382.4 1262.46 1371.94 C 1244.52 1346.49 1225.59 1319.46 1209.47 1292.85 z"/>
<path transform="translate(0,0)" fill="rgb(109,38,156)" d="M 1225.22 1307.01 C 1230.86 1310.84 1236.4 1317.44 1241.43 1320.42 C 1251.08 1326.14 1261.12 1331.33 1270.79 1337.13 L 1358.74 1389.36 L 1542.36 1498.99 C 1555.37 1506.62 1639.37 1552.47 1644.24 1558.34 C 1640.35 1557.65 1621.82 1550.82 1616.8 1549.15 L 1550.8 1527.27 C 1488.19 1506.67 1424.03 1489.87 1361.36 1469.26 C 1357.63 1468.04 1350.78 1465.56 1347.17 1465.44 C 1345.68 1464.61 1343.69 1463.91 1342.06 1463.26 C 1343.82 1462.59 1343.08 1463.17 1344.12 1461.34 C 1339.8 1453.29 1315.72 1423.51 1309.1 1414.6 C 1287.53 1385.54 1264.72 1356.69 1243.13 1327.55 C 1237.34 1319.73 1232.31 1318.25 1225.22 1307.01 z"/>
<path transform="translate(0,0)" fill="rgb(44,11,82)" d="M 1187.78 1560.41 C 1202.5 1556.51 1225.47 1558.64 1241.3 1558.32 C 1288.91 1557.37 1337.16 1558.83 1384.7 1558.79 C 1441 1558.74 1497.14 1558.48 1553.47 1558.8 C 1586.66 1558.99 1601.87 1557.97 1635.37 1560.77 L 1634.78 1558.86 C 1634.24 1558.83 1666.31 1566.9 1665.17 1566.24 L 1399.72 1566.87 C 1354.78 1566.46 1309.84 1566.35 1264.89 1566.55 C 1237.43 1566.5 1208.3 1565.9 1180.98 1566.99 L 1187.78 1560.41 z"/>
<path transform="translate(0,0)" fill="rgb(61,15,106)" d="M 1209.47 1292.85 C 1224.86 1300.08 1235.75 1306.67 1249.86 1315.72 L 1245.94 1315.67 C 1235.97 1310.11 1227.01 1304.37 1216.78 1299.05 C 1219.67 1301.62 1222.49 1304.28 1225.22 1307.01 C 1232.31 1318.25 1237.34 1319.73 1243.13 1327.55 C 1264.72 1356.69 1287.53 1385.54 1309.1 1414.6 C 1315.72 1423.51 1339.8 1453.29 1344.12 1461.34 C 1343.08 1463.17 1343.82 1462.59 1342.06 1463.26 C 1332.38 1466.99 1317.27 1476.91 1308 1482.65 L 1257.53 1514.1 L 1215.53 1540.38 C 1209.37 1544.22 1198.33 1550.69 1193.01 1554.71 C 1189.87 1556.64 1189.68 1557.34 1187.78 1560.41 L 1180.98 1566.99 L 1168.52 1566.96 C 1193.07 1548.69 1231.42 1526.54 1258.31 1509.58 L 1303.98 1481 C 1310.43 1477 1321.66 1469.58 1328.25 1466.66 L 1328.68 1466 C 1328.46 1459.75 1293.64 1415.89 1287.38 1406.84 C 1279.62 1397.34 1269.83 1382.4 1262.46 1371.94 C 1244.52 1346.49 1225.59 1319.46 1209.47 1292.85 z"/>
<path transform="translate(0,0)" fill="rgb(44,11,82)" d="M 1287.38 1406.84 C 1293.39 1408.71 1303.54 1423.84 1308.06 1429.38 C 1316.85 1440.13 1326.17 1451.2 1334.4 1462.35 C 1333.24 1465.19 1333.03 1464.57 1329.86 1466.56 L 1328.25 1466.66 L 1328.68 1466 C 1328.46 1459.75 1293.64 1415.89 1287.38 1406.84 z"/>
<path transform="translate(0,0)" fill="rgb(181,102,222)" d="M 1216.78 1299.05 C 1227.01 1304.37 1235.97 1310.11 1245.94 1315.67 L 1552.15 1499.24 C 1585.06 1519 1621.48 1537.41 1654.16 1558.15 L 1653.75 1560.04 L 1656.71 1560.3 C 1652.96 1560.98 1648.06 1559.39 1644.24 1558.34 C 1639.37 1552.47 1555.37 1506.62 1542.36 1498.99 L 1358.74 1389.36 L 1270.79 1337.13 C 1261.12 1331.33 1251.08 1326.14 1241.43 1320.42 C 1236.4 1317.44 1230.86 1310.84 1225.22 1307.01 C 1222.49 1304.28 1219.67 1301.62 1216.78 1299.05 z"/>
<path transform="translate(0,0)" fill="rgb(142,75,197)" d="M 1342.06 1463.26 C 1343.69 1463.91 1345.68 1464.61 1347.17 1465.44 C 1337.93 1472.51 1328.83 1476.93 1319.01 1483.02 L 1256.05 1521.52 C 1243.33 1529.39 1208.79 1552.13 1195.96 1555.64 C 1195.12 1555.4 1193.74 1555.08 1193.01 1554.71 C 1198.33 1550.69 1209.37 1544.22 1215.53 1540.38 L 1257.53 1514.1 L 1308 1482.65 C 1317.27 1476.91 1332.38 1466.99 1342.06 1463.26 z"/>
<path transform="translate(0,0)" fill="url(#Gradient1)" d="M 926.409 1176.68 C 914.447 1157.29 912.408 1127.69 917.8 1105.99 C 932.72 1045.94 991.397 1008.14 1051.95 1023.23 C 1080.94 1030.51 1105.76 1049.17 1120.81 1074.99 C 1135.64 1100.07 1140.12 1128.69 1133.08 1157.19 C 1129.41 1172.06 1120.83 1184.4 1112.85 1197.09 C 1098.03 1214.41 1078.46 1228.99 1056.13 1234.74 L 1054.19 1235.29 C 1026.99 1241.45 999.594 1241 974.851 1226.5 C 956.932 1219.91 934.939 1194.44 926.409 1176.68 z M 1022.7 1133.65 C 1018.98 1118.18 1010.07 1102.04 1006.32 1087.77 C 1002.99 1085.06 999.852 1083.93 998.106 1080.13 L 998.887 1077.67 C 1003.58 1076.27 1047.54 1076.73 1054.98 1077.11 L 1055.74 1078.02 C 1053.63 1085.14 1047.63 1083.68 1042.82 1093.44 C 1046.4 1109.94 1055.16 1130.52 1060.09 1147.35 C 1064.48 1159.81 1069.13 1172.17 1074.03 1184.44 C 1075.73 1176.34 1079.64 1165.27 1081.95 1156.99 C 1085.54 1144.07 1088.94 1130.92 1092.68 1118.07 C 1085.05 1095.99 1071.98 1089.13 1079.91 1064.2 C 1085.91 1063.27 1091.38 1063.06 1097.43 1062.73 L 1096.51 1061.81 C 1072.72 1038.33 1050.32 1030.62 1017.49 1031.05 C 1014.7 1031.56 1002.79 1033.9 1000.56 1033.84 C 976.05 1042.51 956.387 1053.76 942.893 1077.14 C 949.117 1077.01 977.761 1075.54 980.954 1078.07 C 980.231 1083.29 970.226 1087.45 970.934 1092.39 C 974.916 1120.21 994.53 1159.19 1001.07 1186.47 C 1006.73 1175.27 1018.07 1146.42 1022.7 1133.65 z M 1113.67 1092.56 C 1106.26 1125.82 1094.34 1154.57 1083.99 1186.86 C 1082.56 1191.32 1075.5 1209.7 1075.21 1211.76 C 1078.05 1211.57 1079.57 1210.32 1082.03 1208.85 C 1103.66 1193.27 1117.41 1174.6 1121.99 1147.9 C 1124.04 1135.94 1124.76 1099.61 1113.67 1092.56 z M 929.067 1148.23 C 938.278 1182.95 951.586 1197.53 980.039 1216.86 C 975.708 1203.51 970.17 1188.98 966.435 1175.73 C 955.585 1156.05 946.893 1112.68 934.888 1091.13 C 926.486 1111.44 925.639 1126.8 929.067 1148.23 z M 1027.38 1145.73 C 1022.59 1158.81 1014.78 1181.64 1008.72 1193.95 C 1004.88 1204.57 1002.23 1212.92 999.141 1223.78 C 1019.2 1228.88 1036.2 1230.27 1055.47 1221.5 C 1054.9 1219.74 1052.5 1212.7 1052.32 1211.32 C 1043.14 1193.2 1036.32 1164.52 1027.38 1145.73 z"/>
<path transform="translate(0,0)" fill="rgb(61,15,106)" d="M 926.409 1176.68 C 930.606 1179.7 937.558 1187.65 941.245 1191.84 C 954.442 1206.81 966.928 1219.75 985.162 1228.49 L 974.851 1226.5 C 956.932 1219.91 934.939 1194.44 926.409 1176.68 z"/>
<path transform="translate(0,0)" fill="rgb(61,15,106)" d="M 1056.13 1234.74 C 1059.81 1229.79 1076.16 1220.87 1082.11 1217.65 C 1091.39 1212.61 1103.58 1198.49 1112.85 1197.09 C 1098.03 1214.41 1078.46 1228.99 1056.13 1234.74 z"/>
<path transform="translate(0,0)" fill="rgb(61,15,106)" d="M 974.851 1226.5 L 985.162 1228.49 C 1001.62 1234.24 1015.97 1236.78 1033.35 1235.88 C 1038.74 1235.6 1049.34 1234.73 1054.19 1235.29 C 1026.99 1241.45 999.594 1241 974.851 1226.5 z"/>
<path transform="translate(0,0)" fill="rgb(109,38,156)" d="M 980.843 1035.65 C 991.222 1028.67 1012.92 1024.91 1025.11 1027.52 C 1054.54 1028.85 1083.34 1037.73 1101.25 1062.63 C 1095.68 1063.98 1088.73 1065.48 1082.83 1066.12 C 1082.5 1066.15 1080.94 1068.7 1080.92 1068.76 C 1075.64 1081.4 1097.01 1109.74 1092.68 1118.07 C 1085.05 1095.99 1071.98 1089.13 1079.91 1064.2 C 1085.91 1063.27 1091.38 1063.06 1097.43 1062.73 L 1096.51 1061.81 C 1072.72 1038.33 1050.32 1030.62 1017.49 1031.05 C 1014.7 1031.56 1002.79 1033.9 1000.56 1033.84 C 976.05 1042.51 956.387 1053.76 942.893 1077.14 C 949.117 1077.01 977.761 1075.54 980.954 1078.07 C 980.231 1083.29 970.226 1087.45 970.934 1092.39 C 974.916 1120.21 994.53 1159.19 1001.07 1186.47 C 1006.73 1175.27 1018.07 1146.42 1022.7 1133.65 C 1018.98 1118.18 1010.07 1102.04 1006.32 1087.77 C 1012.77 1092.82 1027.05 1129.85 1027.21 1136.99 C 1025.58 1141.89 1027.75 1142.13 1027.38 1145.73 C 1022.59 1158.81 1014.78 1181.64 1008.72 1193.95 C 1007.2 1195.5 1006.38 1196.11 1004.48 1197.16 C 1000.88 1204.69 994.912 1215.47 996.196 1223.02 C 996.503 1224.83 996.442 1224.3 995.146 1225.87 C 991.178 1225.43 984.349 1220.81 980.439 1218.67 C 980.789 1209.06 976.257 1196.55 973.977 1187.05 C 972.652 1181.53 971.453 1178.61 966.435 1175.73 C 955.585 1156.05 946.893 1112.68 934.888 1091.13 C 926.486 1111.44 925.639 1126.8 929.067 1148.23 C 922.915 1142.97 925.293 1138.08 924.969 1131.1 C 923.231 1093.66 945.897 1051.02 980.843 1035.65 z"/>
<path transform="translate(0,0)" fill="rgb(61,15,106)" d="M 1027.38 1145.73 C 1027.75 1142.13 1025.58 1141.89 1027.21 1136.99 C 1036.11 1153.75 1050.92 1193.15 1052.32 1211.32 C 1043.14 1193.2 1036.32 1164.52 1027.38 1145.73 z"/>
<path transform="translate(0,0)" fill="rgb(109,38,156)" d="M 1060.09 1147.35 C 1050.65 1142.41 1042.04 1105.18 1042.82 1093.44 C 1046.4 1109.94 1055.16 1130.52 1060.09 1147.35 z"/>
<path transform="translate(0,0)" fill="rgb(75,21,122)" d="M 1050.94 1295.5 C 1060.57 1295.65 1078.95 1295.03 1087.58 1295.83 L 1090.84 1295.76 L 1092.36 1296.67 C 1091.13 1304.26 1085.62 1318.47 1083.08 1326.14 L 1061.27 1390 C 1051.84 1417.16 1043.31 1445.01 1033.8 1472.01 C 1022.36 1504.54 1011.4 1536.18 1000.71 1569.01 C 984.348 1568.81 967.378 1568.37 951.067 1568.53 C 954.192 1560.18 958.864 1546.58 962.36 1538.84 C 963.173 1533.81 970.408 1514.06 972.744 1508.35 C 988.728 1469.3 999.727 1423.95 1016.25 1385.5 C 1017.59 1375.22 1042.04 1313.56 1046.82 1298.29 C 1047.56 1295.91 1048.95 1296.05 1050.94 1295.5 z"/>
<path transform="translate(0,0)" fill="rgb(109,38,156)" d="M 1050.94 1295.5 C 1060.57 1295.65 1078.95 1295.03 1087.58 1295.83 C 1086.96 1299.37 1085.71 1301.51 1082.27 1303.03 L 1069.04 1302.93 C 1064.38 1303.22 1060.46 1303.49 1055.77 1303.4 C 1049.54 1314.69 1045.34 1333.32 1040.22 1346.18 C 1020.07 1396.88 1003.85 1449.54 984.818 1500.67 C 977.642 1519.95 970.7 1540.84 961.765 1559.19 C 961.624 1559.58 960.544 1561.08 960.264 1561.49 L 959.23 1560.6 L 959.939 1558.29 C 958.304 1550.76 962.099 1547.91 962.36 1538.84 C 963.173 1533.81 970.408 1514.06 972.744 1508.35 C 988.728 1469.3 999.727 1423.95 1016.25 1385.5 C 1017.59 1375.22 1042.04 1313.56 1046.82 1298.29 C 1047.56 1295.91 1048.95 1296.05 1050.94 1295.5 z"/>
<path transform="translate(0,0)" fill="rgb(61,15,106)" d="M 962.36 1538.84 C 963.173 1533.81 970.408 1514.06 972.744 1508.35 C 988.728 1469.3 999.727 1423.95 1016.25 1385.5 C 1017.63 1400.51 1001.2 1421 1002.72 1439.29 C 988.337 1479.24 974.924 1518.47 959.939 1558.29 C 958.304 1550.76 962.099 1547.91 962.36 1538.84 z"/>
<path transform="translate(0,0)" fill="rgb(75,21,122)" d="M 1016.25 1385.5 C 1017.59 1375.22 1042.04 1313.56 1046.82 1298.29 C 1047.56 1295.91 1048.95 1296.05 1050.94 1295.5 C 1046.67 1316.22 1031.52 1354.92 1024.27 1376.35 L 1009.73 1419.27 C 1007.41 1426.13 1005.83 1432.76 1002.72 1439.29 C 1001.2 1421 1017.63 1400.51 1016.25 1385.5 z"/>
<path transform="translate(0,0)" fill="rgb(181,102,222)" d="M 1069.04 1302.93 C 1065.12 1302.57 1055.88 1302.2 1052.73 1301.06 C 1059.35 1298.57 1075.86 1298.17 1081.87 1300.19 C 1082.63 1302.07 1082.53 1301.12 1082.27 1303.03 L 1069.04 1302.93 z"/>
<path transform="translate(0,0)" fill="rgb(61,15,106)" d="M 1090.84 1295.76 L 1092.36 1296.67 C 1091.13 1304.26 1085.62 1318.47 1083.08 1326.14 L 1061.27 1390 C 1051.84 1417.16 1043.31 1445.01 1033.8 1472.01 C 1022.36 1504.54 1011.4 1536.18 1000.71 1569.01 C 984.348 1568.81 967.378 1568.37 951.067 1568.53 C 954.192 1560.18 958.864 1546.58 962.36 1538.84 C 962.099 1547.91 958.304 1550.76 959.939 1558.29 L 959.23 1560.6 L 960.264 1561.49 C 960.544 1561.08 961.624 1559.58 961.765 1559.19 C 968.563 1558.72 988.972 1559.68 996.917 1559.8 C 999.365 1550.3 1003.79 1539.93 1007.07 1530.51 L 1030.27 1464.14 C 1045.59 1419.82 1059.76 1374.52 1076.63 1330.59 C 1081.75 1317.24 1082.33 1308.02 1090.84 1295.76 z"/>
<path transform="translate(0,0)" fill="rgb(109,38,156)" d="M 1118.03 1382.48 C 1117.98 1375.17 1116.55 1335.26 1119.7 1331.4 L 1121.82 1332.25 C 1164.35 1355.78 1211.48 1387.12 1253.68 1413.12 C 1255.49 1416.16 1255.32 1418.85 1254.91 1422.39 L 1255.03 1454.54 C 1239.26 1462.93 1224.56 1472.6 1209.37 1482 L 1154.89 1515.07 C 1143.06 1522.23 1129.15 1530.94 1116.79 1537.03 L 1116.98 1510.47 L 1117.05 1485.04 C 1133.42 1474.43 1149.99 1464.15 1166.77 1454.2 C 1177.04 1447 1190.41 1439.19 1201.28 1432.81 L 1118.03 1382.48 z"/>
<path transform="translate(0,0)" fill="rgb(61,15,106)" d="M 1118.03 1382.48 C 1117.98 1375.17 1116.55 1335.26 1119.7 1331.4 L 1121.82 1332.25 L 1119.82 1333.7 C 1119.95 1336.25 1119.98 1337.92 1122.58 1339.49 L 1122.86 1341.79 C 1122.81 1352.49 1122.93 1363.19 1123.23 1373.88 L 1123.26 1373.8 C 1137.51 1381.51 1197.02 1416.51 1206.7 1426.51 C 1207.57 1430 1206.39 1430.5 1206.84 1433.92 C 1197.05 1441.2 1181.66 1449.25 1170.64 1456.05 L 1166.77 1454.2 C 1177.04 1447 1190.41 1439.19 1201.28 1432.81 L 1118.03 1382.48 z"/>
<path transform="translate(0,0)" fill="rgb(44,11,82)" d="M 1249.79 1452.28 C 1256.24 1437.12 1251.43 1435.17 1254.91 1422.39 L 1255.03 1454.54 C 1239.26 1462.93 1224.56 1472.6 1209.37 1482 L 1154.89 1515.07 C 1143.06 1522.23 1129.15 1530.94 1116.79 1537.03 L 1116.98 1510.47 C 1118.17 1514.51 1119.62 1519.35 1122.67 1522.3 C 1128.28 1520.31 1145.24 1509.66 1151.03 1506.14 C 1167.82 1495.77 1184.68 1485.53 1201.62 1475.42 C 1211.23 1476.95 1241.44 1458.2 1249.79 1452.28 z"/>
<path transform="translate(0,0)" fill="rgb(181,102,222)" d="M 1122.58 1339.49 L 1123.66 1337.3 C 1128.17 1337.9 1248.39 1414.94 1250.07 1417.15 C 1245.75 1427.46 1250.25 1434.71 1248.44 1443.29 C 1245.8 1438.59 1248.86 1422.36 1246.49 1420.59 C 1219.21 1400.23 1188.81 1383.12 1160.07 1364.76 C 1148.96 1357.67 1132.84 1349.51 1122.86 1341.79 L 1122.58 1339.49 z"/>
<path transform="translate(0,0)" fill="rgb(181,102,222)" d="M 1206.84 1433.92 L 1208.53 1435.68 C 1205.1 1439.82 1126.72 1488.71 1122.98 1489.47 L 1121.25 1488.35 C 1121.04 1486.87 1120.59 1486.16 1121.59 1485.52 C 1136.29 1476.16 1156.19 1465.01 1170.64 1456.05 C 1181.66 1449.25 1197.05 1441.2 1206.84 1433.92 z"/>
<path transform="translate(0,0)" fill="rgb(61,15,106)" d="M 1253.68 1413.12 C 1255.49 1416.16 1255.32 1418.85 1254.91 1422.39 C 1251.43 1435.17 1256.24 1437.12 1249.79 1452.28 C 1241.44 1458.2 1211.23 1476.95 1201.62 1475.42 C 1214.31 1466.78 1235.95 1451.69 1249.6 1446.49 C 1249.43 1436.81 1250.62 1422.31 1253.68 1413.12 z"/>
<path transform="translate(0,0)" fill="rgb(75,21,122)" d="M 933.506 1329.6 C 933.6 1335.3 933.278 1340.91 933.031 1346.6 C 934.131 1356.35 933.961 1371.09 933.752 1381.05 C 922.113 1388.08 912.603 1393.77 898.925 1402.32 C 887.088 1409.71 864.183 1424.6 851.11 1431.64 C 850.813 1432.26 850.517 1432.87 850.221 1433.49 C 857.297 1436.37 871.789 1445.87 878.838 1450.18 L 931.165 1482.17 L 934.333 1484.4 C 935.531 1490.56 935.444 1527.65 933.978 1534.43 C 919.251 1531.16 813.551 1464.17 796.101 1453.14 C 795.859 1443.47 796.149 1435.03 796.521 1425.41 L 796.49 1414.63 C 824.875 1396.04 853.529 1377.87 882.443 1360.12 C 897.004 1350.98 918.443 1336.54 933.506 1329.6 z"/>
<path transform="translate(0,0)" fill="rgb(44,11,82)" d="M 796.521 1425.41 C 797.787 1432.06 799.042 1439.66 800.904 1446.07 L 802.244 1445.71 C 813.714 1451.31 828.026 1461.4 839.16 1468.3 C 852.275 1476.42 866.034 1484.51 878.868 1492.93 C 886.641 1498.02 903.004 1505.93 909.237 1511.22 L 910.325 1511.68 C 918.312 1515.16 923.435 1521.69 928.44 1522.82 C 930.162 1520.46 929.515 1520.77 929.173 1516.97 C 928.812 1507.75 929.251 1498.51 930.487 1489.36 C 932.581 1485.39 932.208 1487.18 931.165 1482.17 L 934.333 1484.4 C 935.531 1490.56 935.444 1527.65 933.978 1534.43 C 919.251 1531.16 813.551 1464.17 796.101 1453.14 C 795.859 1443.47 796.149 1435.03 796.521 1425.41 z"/>
<path transform="translate(0,0)" fill="rgb(61,15,106)" d="M 931.165 1482.17 L 934.333 1484.4 C 933.863 1500.79 934.572 1516.52 933.225 1532.9 C 927.766 1530.23 912.689 1515.94 909.237 1511.22 L 910.325 1511.68 C 918.312 1515.16 923.435 1521.69 928.44 1522.82 C 930.162 1520.46 929.515 1520.77 929.173 1516.97 C 928.812 1507.75 929.251 1498.51 930.487 1489.36 C 932.581 1485.39 932.208 1487.18 931.165 1482.17 z"/>
<path transform="translate(0,0)" fill="rgb(142,75,197)" d="M 933.506 1329.6 C 933.6 1335.3 933.278 1340.91 933.031 1346.6 C 932.305 1353.7 931.671 1369.4 927.131 1373.84 L 926.241 1371.01 L 925.769 1371.97 C 925.425 1362.2 925.196 1352.44 925.082 1342.67 C 902.385 1356.3 879.837 1370.19 857.444 1384.32 C 838.855 1396.29 820.701 1409.61 800.864 1418.9 C 800.144 1424.01 800.688 1441.07 802.244 1445.71 L 800.904 1446.07 C 799.042 1439.66 797.787 1432.06 796.521 1425.41 L 796.49 1414.63 C 824.875 1396.04 853.529 1377.87 882.443 1360.12 C 897.004 1350.98 918.443 1336.54 933.506 1329.6 z"/>
<path transform="translate(0,0)" fill="rgb(61,15,106)" d="M 933.031 1346.6 C 934.131 1356.35 933.961 1371.09 933.752 1381.05 C 922.113 1388.08 912.603 1393.77 898.925 1402.32 C 887.088 1409.71 864.183 1424.6 851.11 1431.64 C 850.813 1432.26 850.517 1432.87 850.221 1433.49 C 846.683 1433.79 843.719 1430.99 840.578 1428.75 L 839.809 1428.61 L 839.891 1427.55 C 862.844 1410.14 901.878 1389.86 927.131 1373.84 C 931.671 1369.4 932.305 1353.7 933.031 1346.6 z"/>
<path transform="translate(0,0)" fill="rgb(181,102,222)" d="M 838.956 1432.16 C 849.418 1437.94 927.83 1483.62 930.147 1488.36 C 926.516 1488.94 923.145 1486.39 919.738 1484.49 C 906.826 1477.07 894.006 1469.49 881.279 1461.76 C 873.372 1456.96 840.573 1438.79 838.956 1432.16 z"/>
<path transform="translate(0,0)" fill="rgb(109,38,156)" d="M 919.738 1484.49 C 923.145 1486.39 926.516 1488.94 930.147 1488.36 L 930.487 1489.36 C 929.251 1498.51 928.812 1507.75 929.173 1516.97 L 927.542 1519.01 C 921.728 1511.93 927.113 1494.4 919.738 1484.49 z"/>
<path transform="translate(0,0)" fill="rgb(109,38,156)" d="M 1178.8 952.173 C 1189.8 952.044 1200.81 951.975 1211.81 951.967 C 1213.01 966.093 1211.99 984.876 1212.35 999.443 C 1213.44 1043.88 1210.48 1093.42 1212.69 1137.51 C 1198.34 1137.49 1183.96 1137.05 1169.62 1137.22 C 1168.87 1125.1 1168.3 1073.26 1169.88 1062.61 C 1169.49 1035.82 1168.78 1009.04 1169.3 982.246 C 1169.42 975.964 1168.94 958.53 1170.12 953.277 C 1172.79 951.426 1175.4 952.034 1178.8 952.173 z"/>
<path transform="translate(0,0)" fill="rgb(61,15,106)" d="M 1211.81 951.967 C 1213.01 966.093 1211.99 984.876 1212.35 999.443 C 1213.44 1043.88 1210.48 1093.42 1212.69 1137.51 C 1198.34 1137.49 1183.96 1137.05 1169.62 1137.22 C 1168.87 1125.1 1168.3 1073.26 1169.88 1062.61 C 1170.85 1070.71 1169.93 1099.93 1170.69 1103.08 C 1170.87 1100.44 1171.86 1082.58 1172.46 1081.63 C 1173.33 1093.26 1174.76 1116.68 1174.72 1128.08 C 1188.43 1128.05 1195.23 1127.97 1208.75 1130.44 C 1209.05 1123.46 1209.78 1112.11 1208.04 1105.44 C 1206.55 1082.69 1208.82 1052.32 1209.77 1029.23 C 1210.44 1013.16 1207.1 962.959 1211.81 951.967 z"/>
<path transform="translate(0,0)" fill="rgb(75,21,122)" d="M 1169.88 1062.61 C 1169.49 1035.82 1168.78 1009.04 1169.3 982.246 C 1169.42 975.964 1168.94 958.53 1170.12 953.277 C 1172.79 951.426 1175.4 952.034 1178.8 952.173 L 1178.94 952.921 L 1173.65 953.134 C 1172.69 955.595 1172.8 954.133 1173.27 956.189 C 1176.4 969.858 1174.65 992.391 1174.78 1005.57 C 1174.92 1020.57 1174.61 1118.82 1177.57 1124.73 C 1184.42 1126.89 1195.08 1125.62 1203.5 1127.42 C 1210.51 1124.76 1207.15 1112.77 1208.04 1105.44 C 1209.78 1112.11 1209.05 1123.46 1208.75 1130.44 C 1195.23 1127.97 1188.43 1128.05 1174.72 1128.08 C 1174.76 1116.68 1173.33 1093.26 1172.46 1081.63 C 1171.86 1082.58 1170.87 1100.44 1170.69 1103.08 C 1169.93 1099.93 1170.85 1070.71 1169.88 1062.61 z"/>
<path transform="translate(0,0)" fill="rgb(205,132,246)" d="M 1178.94 952.921 C 1193.85 952.682 1199.48 952.402 1213.74 955.452 C 1203.99 957.952 1186.6 959.859 1176.55 957.216 C 1174.93 956.79 1174.71 955.208 1173.65 953.134 L 1178.94 952.921 z"/>
<path transform="translate(0,0)" fill="rgb(109,38,156)" d="M 1244.7 994.823 C 1244.89 987.196 1243.94 960.088 1245.54 954.399 L 1247.59 954.019 C 1284.11 953.217 1322.34 953.804 1358.99 953.843 L 1359.02 989.305 C 1358.88 992.774 1359.59 991.649 1357.91 993.769 C 1344.72 995.123 1325.69 994.79 1312.22 994.793 L 1244.7 994.823 z"/>
<path transform="translate(0,0)" fill="rgb(75,21,122)" d="M 1244.7 994.823 C 1244.89 987.196 1243.94 960.088 1245.54 954.399 L 1247.59 954.019 L 1249.11 956.391 C 1250.37 967.296 1250.56 973.575 1250.49 984.51 L 1264.01 984.314 C 1289.53 984.647 1327.71 983.832 1352.28 985.569 C 1354.21 987.252 1355.39 988.252 1357.5 989.781 L 1359.02 989.305 C 1358.88 992.774 1359.59 991.649 1357.91 993.769 C 1344.72 995.123 1325.69 994.79 1312.22 994.793 L 1244.7 994.823 z"/>
<path transform="translate(0,0)" fill="rgb(205,132,246)" d="M 1247.59 954.019 C 1284.11 953.217 1322.34 953.804 1358.99 953.843 L 1359.02 989.305 L 1357.5 989.781 C 1355.39 988.252 1354.21 987.252 1352.28 985.569 C 1355.53 982.184 1354.43 964.515 1354.6 958.138 C 1336.82 962.674 1259.16 955.757 1250.27 959.617 C 1252.81 959.798 1255.35 959.912 1257.86 960.275 L 1255.72 960.647 C 1252.95 966.793 1253.04 975.624 1253.17 982.317 C 1256.75 982.742 1260.64 983.041 1264.01 984.314 L 1250.49 984.51 C 1250.56 973.575 1250.37 967.296 1249.11 956.391 L 1247.59 954.019 z"/>
<path transform="translate(0,0)" fill="rgb(109,38,156)" d="M 1247.59 954.019 C 1284.11 953.217 1322.34 953.804 1358.99 953.843 L 1359.02 989.305 L 1357.5 989.781 C 1355.39 988.252 1354.21 987.252 1352.28 985.569 C 1355.53 982.184 1354.43 964.515 1354.6 958.138 C 1353.4 957.129 1352.34 956.313 1350.67 956.305 C 1317.28 956.149 1282.42 954.672 1249.11 956.391 L 1247.59 954.019 z"/>
<path transform="translate(0,0)" fill="rgb(109,38,156)" d="M 1244.99 1137.8 C 1244.85 1130.01 1243.99 1103.74 1245.53 1097.42 L 1247.84 1096.63 C 1282.84 1097.89 1324.21 1095.47 1357.75 1097.41 C 1358.81 1099.09 1358.58 1098.3 1358.78 1099.65 C 1359.73 1110.48 1359.2 1126.23 1359.03 1137.29 C 1322.8 1137.17 1280.88 1136.14 1244.99 1137.8 z"/>
<path transform="translate(0,0)" fill="rgb(61,15,106)" d="M 1244.99 1137.8 C 1244.85 1130.01 1243.99 1103.74 1245.53 1097.42 L 1247.84 1096.63 C 1248.17 1099.4 1247.94 1099.59 1248.99 1102.03 C 1249.79 1110.13 1249.84 1119.65 1250.08 1127.89 C 1255.69 1127.73 1261.34 1127.66 1266.96 1127.79 C 1296.62 1128.48 1326.51 1127.14 1356.14 1128.28 C 1357.28 1118.63 1355.28 1108.71 1358.78 1099.65 C 1359.73 1110.48 1359.2 1126.23 1359.03 1137.29 C 1322.8 1137.17 1280.88 1136.14 1244.99 1137.8 z"/>
<path transform="translate(0,0)" fill="rgb(205,132,246)" d="M 1248.99 1102.03 C 1252.14 1099.87 1346.35 1099.27 1355.61 1100.37 C 1352.92 1103.59 1346.21 1103.8 1342.28 1103.29 C 1328.21 1101.49 1258.55 1106.05 1248.99 1102.03 z"/>
<path transform="translate(0,0)" fill="rgb(109,38,156)" d="M 1245.03 1027 C 1261.31 1026.81 1284.76 1026 1300.65 1027.13 C 1320.1 1026.83 1339.55 1026.84 1358.99 1027.14 L 1359.05 1058.7 C 1358.92 1062.44 1359.28 1063.67 1357.22 1065.92 C 1347.3 1067.31 1327.2 1066.84 1316.51 1066.84 L 1245.04 1066.84 L 1245.03 1027 z"/>
<path transform="translate(0,0)" fill="rgb(61,15,106)" d="M 1245.03 1027 C 1261.31 1026.81 1284.76 1026 1300.65 1027.13 C 1290.3 1028.56 1254.88 1026.02 1248.08 1028.24 C 1247.44 1029.98 1247.49 1029.25 1247.51 1030.35 L 1249.09 1032.89 C 1250.19 1041 1250.11 1048.96 1250.2 1057.13 C 1273.13 1055.37 1296.44 1056.14 1319.45 1056.62 C 1329.24 1056.83 1344.06 1056.56 1353.17 1057.51 L 1355.83 1060.76 C 1358.41 1060.43 1357.28 1060.95 1359.05 1058.7 C 1358.92 1062.44 1359.28 1063.67 1357.22 1065.92 C 1347.3 1067.31 1327.2 1066.84 1316.51 1066.84 L 1245.04 1066.84 L 1245.03 1027 z"/>
<path transform="translate(0,0)" fill="rgb(205,132,246)" d="M 1300.65 1027.13 C 1320.1 1026.83 1339.55 1026.84 1358.99 1027.14 L 1359.05 1058.7 C 1357.28 1060.95 1358.41 1060.43 1355.83 1060.76 L 1353.17 1057.51 C 1355.19 1053.93 1353.96 1040.22 1355.08 1033.15 C 1321.94 1034.53 1282.67 1033.17 1249.09 1032.89 L 1247.51 1030.35 C 1247.49 1029.25 1247.44 1029.98 1248.08 1028.24 C 1254.88 1026.02 1290.3 1028.56 1300.65 1027.13 z"/>
<path transform="translate(0,0)" fill="rgb(109,38,156)" d="M 1300.65 1027.13 C 1320.1 1026.83 1339.55 1026.84 1358.99 1027.14 L 1359.05 1058.7 C 1357.28 1060.95 1358.41 1060.43 1355.83 1060.76 L 1353.17 1057.51 C 1355.19 1053.93 1353.96 1040.22 1355.08 1033.15 C 1355.2 1029.81 1355.63 1031.25 1354.08 1028.6 C 1343.39 1027.41 1255.59 1028.48 1247.51 1030.35 C 1247.49 1029.25 1247.44 1029.98 1248.08 1028.24 C 1254.88 1026.02 1290.3 1028.56 1300.65 1027.13 z"/>
<path transform="translate(0,0)" fill="rgb(109,38,156)" d="M 1388.1 1248.48 C 1395.15 1195.56 1401.93 1142.6 1408.43 1089.61 C 1417.77 1100.22 1407.86 1126.16 1411.97 1137.26 C 1411.73 1150.18 1400.3 1249.26 1396.74 1255.8 C 1380.89 1246.08 1319.64 1233.98 1308.64 1225.82 C 1328.22 1229.81 1367.54 1242.5 1388.1 1248.48 z"/>
</svg>